<?xml version="1.0" encoding="UTF-8" standalone="no"?>
<svg
   xmlns:dc="http://purl.org/dc/elements/1.1/"
   xmlns:cc="http://creativecommons.org/ns#"
   xmlns:rdf="http://www.w3.org/1999/02/22-rdf-syntax-ns#"
   xmlns:svg="http://www.w3.org/2000/svg"
   xmlns="http://www.w3.org/2000/svg"
   version="1.1"
   id="svg3713"
   xml:space="preserve"
   width="589.48999"
   height="186.123"
   viewBox="0 0 589.48999 186.123"><metadata
     id="metadata3719"><rdf:RDF><cc:Work
         rdf:about=""><dc:format>image/svg+xml</dc:format><dc:type
           rdf:resource="http://purl.org/dc/dcmitype/StillImage" /><dc:title></dc:title></cc:Work></rdf:RDF></metadata><defs
     id="defs3717" /><g
     id="g3721"
     transform="matrix(1.3333324,0,0,-1.3333333,-134.85924,736.18947)">

<path
   d="m 101.1266,549.2228 c 0,-32.4 0,-81 0,-97.2"
   style="fill:none;stroke:#0b0c0b;stroke-width:0.21600001;stroke-linecap:butt;stroke-linejoin:bevel;stroke-miterlimit:22.92558479;stroke-dasharray:none;stroke-opacity:1"
   id="path3789" /><path
   d="m 426.0974,552.1167 c -107.3591,0 -268.3976,0 -322.077,0"
   style="fill:none;stroke:#0b0c0b;stroke-width:0.21600001;stroke-linecap:butt;stroke-linejoin:bevel;stroke-miterlimit:22.92558479;stroke-dasharray:none;stroke-opacity:1"
   id="path3791" /><path
   d="m 426.0974,449.1289 c 0.9646,0.9646 2.4117,2.4117 2.8939,2.8939"
   style="fill:none;stroke:#0b0c0b;stroke-width:0.21600001;stroke-linecap:butt;stroke-linejoin:bevel;stroke-miterlimit:22.92558479;stroke-dasharray:none;stroke-opacity:1"
   id="path3793" /><path
   d="m 104.0204,552.1167 c -0.9646,-0.9644 -2.4117,-2.4114 -2.8938,-2.8939"
   style="fill:none;stroke:#0b0c0b;stroke-width:0.21600001;stroke-linecap:butt;stroke-linejoin:bevel;stroke-miterlimit:22.92558479;stroke-dasharray:none;stroke-opacity:1"
   id="path3795" /><path
   d="m 428.9913,452.0228 c 0,32.4 0,81 0,97.2"
   style="fill:none;stroke:#0b0c0b;stroke-width:0.21600001;stroke-linecap:butt;stroke-linejoin:bevel;stroke-miterlimit:22.92558479;stroke-dasharray:none;stroke-opacity:1"
   id="path3797" /><path
   d="m 101.1266,452.0228 c 0.9646,-0.9646 2.4117,-2.4117 2.8938,-2.8939"
   style="fill:none;stroke:#0b0c0b;stroke-width:0.21600001;stroke-linecap:butt;stroke-linejoin:bevel;stroke-miterlimit:22.92558479;stroke-dasharray:none;stroke-opacity:1"
   id="path3799" /><path
   d="m 428.9913,549.2228 c -0.9646,0.9649 -2.4117,2.4117 -2.8939,2.8939"
   style="fill:none;stroke:#0b0c0b;stroke-width:0.21600001;stroke-linecap:butt;stroke-linejoin:bevel;stroke-miterlimit:22.92558479;stroke-dasharray:none;stroke-opacity:1"
   id="path3801" /><path
   d="m 104.0204,449.1289 c 107.3588,0 268.3976,0 322.077,0"
   style="fill:none;stroke:#0b0c0b;stroke-width:0.21600001;stroke-linecap:butt;stroke-linejoin:bevel;stroke-miterlimit:22.92558479;stroke-dasharray:none;stroke-opacity:1"
   id="path3803" /><path
   d="m 365.8487,546.1381 h 18.9289 v -10.0907 h -18.9289 z"
   style="fill:#a7a5a6;fill-opacity:1;fill-rule:evenodd;stroke:none"
   id="path3805" /><path
   d="m 374.453,545.2719 h 8.0306 v -8.3585 h -8.0306 z"
   style="fill:#e9e9e9;fill-opacity:1;fill-rule:evenodd;stroke:#e9e9e9;stroke-width:0.56690001;stroke-linecap:butt;stroke-linejoin:miter;stroke-miterlimit:22.92558479;stroke-dasharray:none;stroke-opacity:1"
   id="path3807" /><path
   d="m 377.6162,545.2719 h 1.7039 v -8.3585 h -1.7039 z"
   style="fill:#d3d2d2;fill-opacity:1;fill-rule:evenodd;stroke:#d3d2d2;stroke-width:0.56690001;stroke-linecap:butt;stroke-linejoin:miter;stroke-miterlimit:22.92558479;stroke-dasharray:none;stroke-opacity:1"
   id="path3809" /><path
   d="m 371.5109,542.6226 c 0.8051,0 1.4582,-0.6531 1.4582,-1.4584 0,-0.8051 -0.6531,-1.4582 -1.4582,-1.4582 -0.8053,0 -1.4581,0.6531 -1.4581,1.4582 0,0.8053 0.6528,1.4584 1.4581,1.4584 z"
   style="fill:#4f4c4d;fill-opacity:1;fill-rule:evenodd;stroke:#4f4c4d;stroke-width:0.56690001;stroke-linecap:butt;stroke-linejoin:miter;stroke-miterlimit:22.92558479;stroke-dasharray:none;stroke-opacity:1"
   id="path3811" /><path
   d="m 365.8487,535.8033 h 18.9289 v -10.0908 h -18.9289 z"
   style="fill:#a7a5a6;fill-opacity:1;fill-rule:evenodd;stroke:none"
   id="path3813" /><path
   d="m 374.453,534.937 h 8.0306 v -8.3585 h -8.0306 z"
   style="fill:#e9e9e9;fill-opacity:1;fill-rule:evenodd;stroke:#e9e9e9;stroke-width:0.56690001;stroke-linecap:butt;stroke-linejoin:miter;stroke-miterlimit:22.92558479;stroke-dasharray:none;stroke-opacity:1"
   id="path3815" /><path
   d="m 377.6162,534.937 h 1.7039 v -8.3585 h -1.7039 z"
   style="fill:#d3d2d2;fill-opacity:1;fill-rule:evenodd;stroke:#d3d2d2;stroke-width:0.56690001;stroke-linecap:butt;stroke-linejoin:miter;stroke-miterlimit:22.92558479;stroke-dasharray:none;stroke-opacity:1"
   id="path3817" /><path
   d="m 371.5109,532.2875 c 0.8051,0 1.4582,-0.6528 1.4582,-1.4581 0,-0.8051 -0.6531,-1.4582 -1.4582,-1.4582 -0.8053,0 -1.4581,0.6531 -1.4581,1.4582 0,0.8053 0.6528,1.4581 1.4581,1.4581 z"
   style="fill:#4f4c4d;fill-opacity:1;fill-rule:evenodd;stroke:#4f4c4d;stroke-width:0.56690001;stroke-linecap:butt;stroke-linejoin:miter;stroke-miterlimit:22.92558479;stroke-dasharray:none;stroke-opacity:1"
   id="path3819" /><path
   d="m 365.849,535.8036 h 18.9303"
   style="fill:none;stroke:#7b7979;stroke-width:0.56690001;stroke-linecap:butt;stroke-linejoin:miter;stroke-miterlimit:22.92558479;stroke-dasharray:none;stroke-opacity:1"
   id="path3821" />

<path
   d="m 365.8487,525.7123 h 18.9289 v -10.0908 h -18.9289 z"
   style="fill:#f47216;fill-opacity:1;fill-rule:evenodd;stroke:none"
   id="path3835" /><path
   d="m 374.453,524.8463 h 8.0306 v -8.3588 h -8.0306 z"
   style="fill:#e9e9e9;fill-opacity:1;fill-rule:evenodd;stroke:#e9e9e9;stroke-width:0.56690001;stroke-linecap:butt;stroke-linejoin:miter;stroke-miterlimit:22.92558479;stroke-dasharray:none;stroke-opacity:1"
   id="path3837" /><path
   d="m 377.6162,524.8463 h 1.7039 v -8.3588 h -1.7039 z"
   style="fill:#d3d2d2;fill-opacity:1;fill-rule:evenodd;stroke:#d3d2d2;stroke-width:0.56690001;stroke-linecap:butt;stroke-linejoin:miter;stroke-miterlimit:22.92558479;stroke-dasharray:none;stroke-opacity:1"
   id="path3839" /><path
   d="m 371.5109,522.1967 c 0.8051,0 1.4582,-0.6531 1.4582,-1.4581 0,-0.8053 -0.6531,-1.4582 -1.4582,-1.4582 -0.8053,0 -1.4581,0.6529 -1.4581,1.4582 0,0.805 0.6528,1.4581 1.4581,1.4581 z"
   style="fill:#4f4c4d;fill-opacity:1;fill-rule:evenodd;stroke:#4f4c4d;stroke-width:0.56690001;stroke-linecap:butt;stroke-linejoin:miter;stroke-miterlimit:22.92558479;stroke-dasharray:none;stroke-opacity:1"
   id="path3841" /><path
   d="m 365.849,525.7125 h 18.9303"
   style="fill:none;stroke:#7b7979;stroke-width:0.56690001;stroke-linecap:butt;stroke-linejoin:miter;stroke-miterlimit:22.92558479;stroke-dasharray:none;stroke-opacity:1"
   id="path3843" /><path
   d="m 365.8487,515.6212 h 18.9289 v -10.0908 h -18.9289 z"
   style="fill:#f47216;fill-opacity:1;fill-rule:evenodd;stroke:none"
   id="path3845" /><path
   d="m 374.453,514.7552 h 8.0306 v -8.3588 h -8.0306 z"
   style="fill:#e9e9e9;fill-opacity:1;fill-rule:evenodd;stroke:#e9e9e9;stroke-width:0.56690001;stroke-linecap:butt;stroke-linejoin:miter;stroke-miterlimit:22.92558479;stroke-dasharray:none;stroke-opacity:1"
   id="path3847" /><path
   d="m 377.6162,514.7552 h 1.7039 v -8.3588 h -1.7039 z"
   style="fill:#d3d2d2;fill-opacity:1;fill-rule:evenodd;stroke:#d3d2d2;stroke-width:0.56690001;stroke-linecap:butt;stroke-linejoin:miter;stroke-miterlimit:22.92558479;stroke-dasharray:none;stroke-opacity:1"
   id="path3849" /><path
   d="m 371.5109,512.1057 c 0.8051,0 1.4582,-0.6531 1.4582,-1.4582 0,-0.8053 -0.6531,-1.4581 -1.4582,-1.4581 -0.8053,0 -1.4581,0.6528 -1.4581,1.4581 0,0.8051 0.6528,1.4582 1.4581,1.4582 z"
   style="fill:#4f4c4d;fill-opacity:1;fill-rule:evenodd;stroke:#4f4c4d;stroke-width:0.56690001;stroke-linecap:butt;stroke-linejoin:miter;stroke-miterlimit:22.92558479;stroke-dasharray:none;stroke-opacity:1"
   id="path3851" /><path
   d="m 365.849,515.6215 h 18.9303"
   style="fill:none;stroke:#7b7979;stroke-width:0.56690001;stroke-linecap:butt;stroke-linejoin:miter;stroke-miterlimit:22.92558479;stroke-dasharray:none;stroke-opacity:1"
   id="path3853" /><path
   d="m 365.8487,505.5301 h 18.9289 v -10.0907 h -18.9289 z"
   style="fill:#f47216;fill-opacity:1;fill-rule:evenodd;stroke:none"
   id="path3855" /><path
   d="m 374.453,504.6642 h 8.0306 v -8.3586 h -8.0306 z"
   style="fill:#e9e9e9;fill-opacity:1;fill-rule:evenodd;stroke:#e9e9e9;stroke-width:0.56690001;stroke-linecap:butt;stroke-linejoin:miter;stroke-miterlimit:22.92558479;stroke-dasharray:none;stroke-opacity:1"
   id="path3857" /><path
   d="m 377.6162,504.6642 h 1.7039 v -8.3586 h -1.7039 z"
   style="fill:#d3d2d2;fill-opacity:1;fill-rule:evenodd;stroke:#d3d2d2;stroke-width:0.56690001;stroke-linecap:butt;stroke-linejoin:miter;stroke-miterlimit:22.92558479;stroke-dasharray:none;stroke-opacity:1"
   id="path3859" /><path
   d="m 371.5109,502.0146 c 0.8051,0 1.4582,-0.6528 1.4582,-1.4581 0,-0.8051 -0.6531,-1.4582 -1.4582,-1.4582 -0.8053,0 -1.4581,0.6531 -1.4581,1.4582 0,0.8053 0.6528,1.4581 1.4581,1.4581 z"
   style="fill:#4f4c4d;fill-opacity:1;fill-rule:evenodd;stroke:#4f4c4d;stroke-width:0.56690001;stroke-linecap:butt;stroke-linejoin:miter;stroke-miterlimit:22.92558479;stroke-dasharray:none;stroke-opacity:1"
   id="path3861" /><path
   d="m 365.849,505.5304 h 18.9303"
   style="fill:none;stroke:#7b7979;stroke-width:0.56690001;stroke-linecap:butt;stroke-linejoin:miter;stroke-miterlimit:22.92558479;stroke-dasharray:none;stroke-opacity:1"
   id="path3863" /><path
   d="m 365.8487,495.4394 h 18.9289 v -10.0908 h -18.9289 z"
   style="fill:#a7a5a6;fill-opacity:1;fill-rule:evenodd;stroke:none"
   id="path3865" /><path
   d="m 374.453,494.5731 h 8.0306 v -8.3585 h -8.0306 z"
   style="fill:#e9e9e9;fill-opacity:1;fill-rule:evenodd;stroke:#e9e9e9;stroke-width:0.56690001;stroke-linecap:butt;stroke-linejoin:miter;stroke-miterlimit:22.92558479;stroke-dasharray:none;stroke-opacity:1"
   id="path3867" /><path
   d="m 377.6162,494.5731 h 1.7039 v -8.3585 h -1.7039 z"
   style="fill:#d3d2d2;fill-opacity:1;fill-rule:evenodd;stroke:#d3d2d2;stroke-width:0.56690001;stroke-linecap:butt;stroke-linejoin:miter;stroke-miterlimit:22.92558479;stroke-dasharray:none;stroke-opacity:1"
   id="path3869" /><path
   d="m 371.5109,491.9236 c 0.8051,0 1.4582,-0.6529 1.4582,-1.4582 0,-0.805 -0.6531,-1.4581 -1.4582,-1.4581 -0.8053,0 -1.4581,0.6531 -1.4581,1.4581 0,0.8053 0.6528,1.4582 1.4581,1.4582 z"
   style="fill:#4f4c4d;fill-opacity:1;fill-rule:evenodd;stroke:#4f4c4d;stroke-width:0.56690001;stroke-linecap:butt;stroke-linejoin:miter;stroke-miterlimit:22.92558479;stroke-dasharray:none;stroke-opacity:1"
   id="path3871" /><path
   d="m 365.849,495.4394 h 18.9303"
   style="fill:none;stroke:#7b7979;stroke-width:0.56690001;stroke-linecap:butt;stroke-linejoin:miter;stroke-miterlimit:22.92558479;stroke-dasharray:none;stroke-opacity:1"
   id="path3873" /><path
   d="m 365.8487,485.3483 h 18.9289 v -10.0908 h -18.9289 z"
   style="fill:#a7a5a6;fill-opacity:1;fill-rule:evenodd;stroke:none"
   id="path3875" /><path
   d="m 374.453,484.4823 h 8.0306 v -8.3588 h -8.0306 z"
   style="fill:#e9e9e9;fill-opacity:1;fill-rule:evenodd;stroke:#e9e9e9;stroke-width:0.56690001;stroke-linecap:butt;stroke-linejoin:miter;stroke-miterlimit:22.92558479;stroke-dasharray:none;stroke-opacity:1"
   id="path3877" /><path
   d="m 377.6162,484.4823 h 1.7039 v -8.3588 h -1.7039 z"
   style="fill:#d3d2d2;fill-opacity:1;fill-rule:evenodd;stroke:#d3d2d2;stroke-width:0.56690001;stroke-linecap:butt;stroke-linejoin:miter;stroke-miterlimit:22.92558479;stroke-dasharray:none;stroke-opacity:1"
   id="path3879" /><path
   d="m 371.5109,481.8328 c 0.8051,0 1.4582,-0.6531 1.4582,-1.4582 0,-0.8053 -0.6531,-1.4581 -1.4582,-1.4581 -0.8053,0 -1.4581,0.6528 -1.4581,1.4581 0,0.8051 0.6528,1.4582 1.4581,1.4582 z"
   style="fill:#4f4c4d;fill-opacity:1;fill-rule:evenodd;stroke:#4f4c4d;stroke-width:0.56690001;stroke-linecap:butt;stroke-linejoin:miter;stroke-miterlimit:22.92558479;stroke-dasharray:none;stroke-opacity:1"
   id="path3881" /><path
   d="m 365.849,485.3486 h 18.9303"
   style="fill:none;stroke:#7b7979;stroke-width:0.56690001;stroke-linecap:butt;stroke-linejoin:miter;stroke-miterlimit:22.92558479;stroke-dasharray:none;stroke-opacity:1"
   id="path3883" /><path
   d="m 365.8487,475.2573 h 18.9289 v -10.0908 h -18.9289 z"
   style="fill:#a7a5a6;fill-opacity:1;fill-rule:evenodd;stroke:none"
   id="path3885" /><path
   d="m 374.453,474.3913 h 8.0306 v -8.3588 h -8.0306 z"
   style="fill:#e9e9e9;fill-opacity:1;fill-rule:evenodd;stroke:#e9e9e9;stroke-width:0.56690001;stroke-linecap:butt;stroke-linejoin:miter;stroke-miterlimit:22.92558479;stroke-dasharray:none;stroke-opacity:1"
   id="path3887" /><path
   d="m 377.6162,474.3913 h 1.7039 v -8.3588 h -1.7039 z"
   style="fill:#d3d2d2;fill-opacity:1;fill-rule:evenodd;stroke:#d3d2d2;stroke-width:0.56690001;stroke-linecap:butt;stroke-linejoin:miter;stroke-miterlimit:22.92558479;stroke-dasharray:none;stroke-opacity:1"
   id="path3889" /><path
   d="m 371.5109,471.7417 c 0.8051,0 1.4582,-0.6531 1.4582,-1.4581 0,-0.8053 -0.6531,-1.4582 -1.4582,-1.4582 -0.8053,0 -1.4581,0.6529 -1.4581,1.4582 0,0.805 0.6528,1.4581 1.4581,1.4581 z"
   style="fill:#4f4c4d;fill-opacity:1;fill-rule:evenodd;stroke:#4f4c4d;stroke-width:0.56690001;stroke-linecap:butt;stroke-linejoin:miter;stroke-miterlimit:22.92558479;stroke-dasharray:none;stroke-opacity:1"
   id="path3891" /><path
   d="m 365.849,475.2575 h 18.9303"
   style="fill:none;stroke:#7b7979;stroke-width:0.56690001;stroke-linecap:butt;stroke-linejoin:miter;stroke-miterlimit:22.92558479;stroke-dasharray:none;stroke-opacity:1"
   id="path3893" /><path
   d="m 365.8487,465.1662 h 18.9289 v -10.0908 h -18.9289 z"
   style="fill:#a7a5a6;fill-opacity:1;fill-rule:evenodd;stroke:none"
   id="path3895" /><path
   d="m 374.453,464.3002 h 8.0306 v -8.3585 h -8.0306 z"
   style="fill:#e9e9e9;fill-opacity:1;fill-rule:evenodd;stroke:#e9e9e9;stroke-width:0.56690001;stroke-linecap:butt;stroke-linejoin:miter;stroke-miterlimit:22.92558479;stroke-dasharray:none;stroke-opacity:1"
   id="path3897" /><path
   d="m 377.6162,464.3002 h 1.7039 v -8.3585 h -1.7039 z"
   style="fill:#d3d2d2;fill-opacity:1;fill-rule:evenodd;stroke:#d3d2d2;stroke-width:0.56690001;stroke-linecap:butt;stroke-linejoin:miter;stroke-miterlimit:22.92558479;stroke-dasharray:none;stroke-opacity:1"
   id="path3899" /><path
   d="m 371.5109,461.6507 c 0.8051,0 1.4582,-0.6528 1.4582,-1.4582 0,-0.805 -0.6531,-1.4581 -1.4582,-1.4581 -0.8053,0 -1.4581,0.6531 -1.4581,1.4581 0,0.8054 0.6528,1.4582 1.4581,1.4582 z"
   style="fill:#4f4c4d;fill-opacity:1;fill-rule:evenodd;stroke:#4f4c4d;stroke-width:0.56690001;stroke-linecap:butt;stroke-linejoin:miter;stroke-miterlimit:22.92558479;stroke-dasharray:none;stroke-opacity:1"
   id="path3901" /><path
   d="m 365.849,465.1665 h 18.9303"
   style="fill:none;stroke:#7b7979;stroke-width:0.56690001;stroke-linecap:butt;stroke-linejoin:miter;stroke-miterlimit:22.92558479;stroke-dasharray:none;stroke-opacity:1"
   id="path3903" />



<path
   d="M 351.023,453.3301 H 179.094 v 1.7448 h -14.6109 v 91.0652 h 14.6109 v 1.7442 h 171.929 v -1.7793 h 14.6123 V 455.0749 H 351.023 Z"
   style="fill:none;stroke:#231f20;stroke-width:0.21600001;stroke-linecap:butt;stroke-linejoin:miter;stroke-miterlimit:22.92558479;stroke-dasharray:none;stroke-opacity:1"
   id="path3967" /><path
   d="m 271.4717,489.3279 h 21.6256 c 0.6627,0 1.2648,-0.271 1.701,-0.7073 0.4363,-0.4362 0.7073,-1.0383 0.7073,-1.701 v -16.5229 c 0,-0.6625 -0.271,-1.2648 -0.7073,-1.7011 -0.4362,-0.4362 -1.0383,-0.7069 -1.701,-0.7069 h -21.6256 c -0.6624,0 -1.2645,0.2707 -1.7007,0.7069 -0.4366,0.4363 -0.7073,1.0386 -0.7073,1.7011 v 16.5229 c 0,0.6627 0.2707,1.2648 0.7073,1.701 0.4362,0.4363 1.0383,0.7073 1.7007,0.7073 z m 9.5786,-8.0144 0.9573,-2.9481 h 0.8435 l 0.2744,1.1569 c 0.0292,0.1465 0.0468,0.2959 0.0511,0.447 h 0.032 l 0.3129,-1.6039 h 0.8655 l 0.964,2.9481 h -1.0332 l -0.2755,-1.2399 c -0.0332,-0.1715 -0.0556,-0.3447 -0.0675,-0.5193 h -0.023 l -0.3736,1.7592 h -0.7608 l -0.29,-1.2164 c -0.0397,-0.18 -0.0677,-0.3605 -0.0827,-0.5428 h -0.0213 l -0.3455,1.7592 z m -9.8702,-1.5389 c 0,1.9148 0.7764,3.6487 2.0316,4.9039 1.2554,1.2555 2.9894,2.0319 4.9042,2.0319 v -0.857 c -1.6784,0 -3.1981,-0.6805 -4.2982,-1.7807 -1.1001,-1.1001 -1.7807,-2.6198 -1.7807,-4.2981 z m 1.8374,0 c 0,1.4074 0.5709,2.6821 1.4936,3.6048 0.9226,0.9226 2.1971,1.4933 3.6048,1.4933 v -0.857 c -1.171,0 -2.2315,-0.4748 -2.9988,-1.2424 -0.7676,-0.7676 -1.2424,-1.8278 -1.2424,-2.9987 z m 5.0984,2.7714 c 1.5304,0 2.7717,-1.241 2.7717,-2.7714 0,-1.5305 -1.2413,-2.7718 -2.7717,-2.7718 -1.5305,0 -2.7715,1.2413 -2.7715,2.7718 0,1.5304 1.241,2.7714 2.7715,2.7714 z m -0.98,-1.2833 -0.5462,-0.8807 h 1.2453 l -1.2756,-2.02 h 2.3842 l 0.5468,0.9114 h -1.2149 l 1.2299,1.9893 z m 14.8788,-2.8973 h 1.9508 v 0.8057 h -0.9048 v 0.2885 h 0.7991 v 0.764 h -0.7991 v 0.2843 h 0.8748 v 0.8056 h -1.9208 z m -1.7008,2.9481 -0.3773,-1.3408 c -0.0482,-0.144 -0.0725,-0.29 -0.0725,-0.4394 h -0.0233 c -0.003,0.1494 -0.0269,0.2954 -0.0725,0.4394 l -0.3773,1.3408 h -1.0832 l 1.1053,-2.9481 h 0.8787 l 1.1055,2.9481 z m -3.8409,-2.5812 h 0.7843 l 0.0944,-0.3669 h 1.0982 l -1.0188,2.9481 h -1.1483 l -0.9913,-2.9481 h 1.0981 z m 0.1851,0.6987 0.1885,0.9014 h 0.0391 c 0.0125,-0.0626 0.0235,-0.125 0.0332,-0.1876 0.005,-0.0321 0.0119,-0.0633 0.0201,-0.0939 0.003,-0.032 0.007,-0.0652 0.015,-0.0998 l 0.1199,-0.5201 z m -16.9087,-2.861 h 4.991 c 0.8481,-0.8932 2.0469,-1.4502 3.3755,-1.4502 1.3289,0 2.5276,0.557 3.3758,1.4502 h 13.3282 v 10.3496 c 0,0.4733 -0.1939,0.9039 -0.5063,1.2163 -0.3124,0.3124 -0.743,0.5063 -1.2163,0.5063 h -21.6256 c -0.4731,0 -0.9036,-0.1939 -1.216,-0.5063 -0.3124,-0.3124 -0.5063,-0.743 -0.5063,-1.2163 z"
   style="fill:#231f20;fill-opacity:1;fill-rule:nonzero;stroke:none"
   id="path3969" /><path
   d="m 278.4005,469.8298 v 3.9588 h 1.5752 c 0.4445,0 0.7911,-0.1032 1.0394,-0.3098 0.2662,-0.2239 0.3992,-0.5547 0.3992,-0.9924 0,-0.896 -0.4675,-1.3442 -1.402,-1.3442 h -0.5829 v -1.3124 z m 1.0289,3.1291 v -0.987 h 0.1735 c 0.1225,0 0.2135,0.002 0.273,0.005 0.0981,0.0105 0.1766,0.0298 0.2361,0.0575 0.1542,0.0666 0.2311,0.2067 0.2311,0.4201 0,0.224 -0.0735,0.3711 -0.2206,0.4411 -0.0592,0.0281 -0.138,0.0456 -0.2361,0.0524 -0.0595,0.007 -0.1539,0.0105 -0.2835,0.0105 h -0.1735 z m 4.4601,0.8297 v -3.0872 h 1.2339 v -0.8716 h -2.2629 v 3.9588 z m 4.964,0 h 1.029 v -2.2263 c 0,-0.1573 -0.003,-0.2835 -0.0105,-0.3779 -0.007,-0.1366 -0.0227,-0.259 -0.0471,-0.3676 -0.0632,-0.2625 -0.1822,-0.4796 -0.3571,-0.6511 -0.1539,-0.154 -0.3569,-0.2676 -0.6092,-0.3413 -0.2134,-0.0664 -0.4479,-0.0998 -0.7035,-0.0998 -0.2554,0 -0.4899,0.0334 -0.7036,0.0998 -0.252,0.0737 -0.455,0.1873 -0.6089,0.3413 -0.1752,0.1715 -0.2939,0.3886 -0.3572,0.6511 -0.0243,0.1086 -0.0402,0.231 -0.047,0.3676 -0.007,0.0944 -0.0108,0.2206 -0.0108,0.3779 v 2.2263 h 1.0293 v -2.0846 c 0,-0.161 0.005,-0.2885 0.0156,-0.3832 0.0141,-0.14 0.0422,-0.2554 0.0842,-0.3464 0.1048,-0.231 0.3044,-0.3467 0.5984,-0.3467 0.2942,0 0.4938,0.1157 0.5986,0.3467 0.042,0.091 0.07,0.2064 0.0839,0.3464 0.0105,0.0947 0.0159,0.2222 0.0159,0.3832 z m 4.8433,-1.0185 c -0.2101,0.1749 -0.4377,0.2625 -0.6826,0.2625 -0.1086,0 -0.2049,-0.028 -0.2888,-0.0842 -0.1015,-0.0629 -0.1523,-0.1451 -0.1523,-0.2466 0,-0.1015 0.0542,-0.1873 0.1627,-0.2574 0.0386,-0.0243 0.0876,-0.049 0.1472,-0.0734 0.0385,-0.0141 0.0876,-0.0297 0.1468,-0.0473 l 0.2628,-0.0788 c 0.3078,-0.091 0.5388,-0.2118 0.693,-0.3623 0.1888,-0.182 0.2835,-0.4218 0.2835,-0.7191 0,-0.2172 -0.0281,-0.4096 -0.0842,-0.5777 -0.07,-0.1996 -0.1783,-0.3623 -0.3254,-0.4884 -0.1471,-0.1259 -0.3237,-0.2203 -0.5304,-0.2835 -0.1854,-0.0595 -0.3832,-0.0893 -0.5933,-0.0893 -0.4969,0 -0.9606,0.1505 -1.3912,0.4516 l 0.4411,0.8297 c 0.1434,-0.1262 0.2834,-0.2223 0.4198,-0.2889 0.1647,-0.0805 0.3291,-0.1207 0.4938,-0.1207 0.1329,0 0.2466,0.0314 0.3413,0.0946 0.1048,0.0734 0.1573,0.1749 0.1573,0.3045 0,0.1258 -0.0768,0.2293 -0.231,0.3098 -0.0559,0.0315 -0.1242,0.0595 -0.2047,0.0839 l -0.1681,0.0524 c -0.007,0.004 -0.0139,0.005 -0.021,0.005 -0.189,0.0525 -0.3359,0.1015 -0.441,0.1469 -0.1401,0.0561 -0.252,0.121 -0.3359,0.1944 -0.1962,0.1681 -0.2943,0.4269 -0.2943,0.777 0,0.3991 0.1279,0.7211 0.3835,0.966 0.2555,0.2416 0.5829,0.3623 0.9817,0.3623 0.4445,0 0.8578,-0.1083 1.2393,-0.3254 l -0.4096,-0.798 z"
   style="fill:#ffffff;fill-opacity:1;fill-rule:nonzero;stroke:none"
   id="path3971" /><path
   d="m 207.8833,536.2571 c -4.2837,0 -8.189,-1.4133 -11.3369,-3.8426 0.0578,-0.023 22.5266,0.036 22.5913,-0.002 -3.1266,2.3695 -7.0288,3.8443 -11.2544,3.8443"
   style="fill:#231f20;fill-opacity:1;fill-rule:nonzero;stroke:none"
   id="path3973" /><path
   d="m 207.8833,531.3146 c -4.2835,0 -8.1887,-0.6808 -11.3363,-1.8515 0.0578,-0.0114 22.5255,0.0172 22.5904,-9e-4 -3.1266,1.1418 -7.0285,1.8524 -11.2541,1.8524"
   style="fill:#231f20;fill-opacity:1;fill-rule:nonzero;stroke:none"
   id="path3975" /><path
   d="m 207.7294,542.8466 c -4.5862,0 -8.5114,-2.1805 -11.1878,-5.4885 0.0167,0.006 22.5683,0.0241 22.6006,-0.007 -2.6748,3.3491 -6.7935,5.495 -11.4128,5.495"
   style="fill:#231f20;fill-opacity:1;fill-rule:nonzero;stroke:none"
   id="path3977" /><path
   d="m 196.6751,525.4336 0.4978,0.049 c 0.0294,-0.1675 0.0904,-0.2899 0.1822,-0.3687 0.0913,-0.0777 0.2146,-0.1171 0.3702,-0.1171 0.1647,0 0.2892,0.0349 0.3722,0.1049 0.0839,0.0694 0.1256,0.1508 0.1256,0.244 0,0.0604 -0.0176,0.1109 -0.053,0.1528 -0.0346,0.0425 -0.0961,0.0791 -0.184,0.1097 -0.0595,0.0213 -0.1964,0.0578 -0.4093,0.1109 -0.2741,0.0677 -0.4666,0.1516 -0.5769,0.2508 -0.1556,0.1389 -0.2333,0.3087 -0.2333,0.5094 0,0.129 0.0366,0.2495 0.1095,0.362 0.0731,0.112 0.1788,0.1976 0.3163,0.2565 0.1381,0.0584 0.3036,0.0879 0.4983,0.0879 0.3184,0 0.5573,-0.0697 0.7183,-0.2089 0.1602,-0.1395 0.2447,-0.3254 0.2529,-0.5584 l -0.5114,-0.0221 c -0.0218,0.1301 -0.0689,0.2239 -0.1409,0.2806 -0.072,0.0572 -0.18,0.0853 -0.3237,0.0853 -0.1485,0 -0.2653,-0.03 -0.3492,-0.0913 -0.0541,-0.0391 -0.0814,-0.0915 -0.0814,-0.157 0,-0.0601 0.0253,-0.1114 0.076,-0.1539 0.0646,-0.0542 0.2214,-0.1106 0.47,-0.1693 0.2492,-0.0589 0.4331,-0.1196 0.5522,-0.1819 0.119,-0.0633 0.2123,-0.1486 0.28,-0.258 0.0672,-0.1088 0.101,-0.2435 0.101,-0.4034 0,-0.1448 -0.04,-0.2812 -0.1208,-0.4073 -0.0808,-0.1267 -0.1947,-0.2211 -0.3421,-0.2826 -0.1474,-0.0618 -0.3314,-0.0924 -0.5517,-0.0924 -0.32,0 -0.5658,0.0737 -0.7375,0.2216 -0.1718,0.148 -0.2744,0.364 -0.3073,0.6469 z m 2.683,1.709 h 0.5113 v -1.3717 c 0,-0.2174 0.007,-0.3591 0.0188,-0.4235 0.0221,-0.1034 0.0745,-0.1868 0.1564,-0.2491 0.0825,-0.0632 0.1951,-0.0944 0.3379,-0.0944 0.1452,0 0.2549,0.0292 0.3286,0.089 0.0737,0.0589 0.1179,0.1321 0.1326,0.2182 0.0153,0.0865 0.0224,0.2299 0.0224,0.4303 v 1.4012 h 0.5114 v -1.3303 c 0,-0.3044 -0.0136,-0.519 -0.0414,-0.6446 -0.0275,-0.1256 -0.0785,-0.231 -0.1528,-0.3177 -0.0743,-0.0862 -0.1738,-0.1551 -0.2976,-0.2067 -0.1248,-0.0513 -0.2872,-0.0765 -0.4879,-0.0765 -0.2415,0 -0.4252,0.0278 -0.5502,0.0839 -0.125,0.0558 -0.2236,0.1284 -0.2959,0.2174 -0.0726,0.089 -0.1202,0.1828 -0.1434,0.2809 -0.0335,0.1449 -0.0502,0.3589 -0.0502,0.6426 z m 2.7601,-2.5327 v 2.5327 h 0.4977 l 1.037,-1.6914 v 1.6914 h 0.4753 v -2.5327 h -0.5136 l -1.0208,1.6517 v -1.6517 z m 2.7487,0 v 2.5327 h 1.0766 c 0.2707,0 0.4672,-0.0229 0.5899,-0.0683 0.1228,-0.0454 0.2211,-0.1261 0.2948,-0.2424 0.0737,-0.1168 0.1103,-0.2494 0.1103,-0.3994 0,-0.1899 -0.0561,-0.3472 -0.1673,-0.4711 -0.1116,-0.1233 -0.2792,-0.2018 -0.5014,-0.2333 0.1108,-0.0652 0.2024,-0.1358 0.2744,-0.2131 0.0717,-0.0771 0.1684,-0.2141 0.2905,-0.4111 l 0.3096,-0.494 h -0.6114 l -0.37,0.5513 c -0.1312,0.197 -0.2211,0.3209 -0.2693,0.3722 -0.0484,0.0513 -0.0997,0.0862 -0.1539,0.1054 -0.0541,0.019 -0.1397,0.0284 -0.2577,0.0284 h -0.1034 v -1.0573 z m 0.5117,1.4618 h 0.3781 c 0.2452,0 0.3989,0.01 0.4601,0.0309 0.0606,0.0204 0.1086,0.0564 0.1431,0.1071 0.0343,0.0508 0.0519,0.1137 0.0519,0.19 0,0.0853 -0.0229,0.1539 -0.0683,0.2063 -0.0454,0.0525 -0.1097,0.0856 -0.1928,0.0998 -0.0413,0.005 -0.1658,0.008 -0.3733,0.008 h -0.3988 v -0.6423 z m 2.2232,-1.4618 v 2.5327 h 0.5111 v -2.5327 z m 2.8162,0.9311 0.4955,-0.157 c -0.076,-0.2764 -0.2024,-0.4816 -0.3793,-0.6163 -0.1763,-0.1337 -0.4011,-0.2009 -0.6729,-0.2009 -0.3362,0 -0.6126,0.1151 -0.8291,0.3444 -0.2166,0.2299 -0.3249,0.5442 -0.3249,0.9422 0,0.4218 0.1089,0.7489 0.3266,0.9825 0.2177,0.233 0.5037,0.3498 0.8586,0.3498 0.3098,0 0.5615,-0.0913 0.7551,-0.275 0.1154,-0.1077 0.2016,-0.2633 0.2594,-0.4663 l -0.5066,-0.121 c -0.0297,0.1315 -0.0921,0.2356 -0.1876,0.3115 -0.095,0.076 -0.2103,0.1137 -0.3461,0.1137 -0.1877,0 -0.3405,-0.0672 -0.457,-0.2021 -0.1168,-0.1344 -0.1751,-0.3526 -0.1751,-0.6548 0,-0.32 0.0572,-0.5482 0.1726,-0.684 0.1151,-0.1361 0.265,-0.2038 0.449,-0.2038 0.1361,0 0.2528,0.0428 0.3509,0.1295 0.0978,0.0862 0.1678,0.2223 0.2109,0.4076 z m 1.1327,-0.9311 v 2.5327 h 0.5117 v -0.9966 h 1.002 v 0.9966 h 0.5114 v -2.5327 h -0.5114 v 1.1075 h -1.002 v -1.1075 z m 2.7508,0 v 2.5327 h 1.8776 v -0.4286 h -1.3662 v -0.5615 h 1.2713 v -0.4264 h -1.2713 v -0.6893 h 1.4144 v -0.4269 z m 2.558,0 v 2.5327 h 1.0768 c 0.2708,0 0.4669,-0.0229 0.5897,-0.0683 0.1227,-0.0454 0.2213,-0.1261 0.2948,-0.2424 0.0739,-0.1168 0.1102,-0.2494 0.1102,-0.3994 0,-0.1899 -0.0558,-0.3472 -0.1672,-0.4711 -0.1114,-0.1233 -0.2792,-0.2018 -0.5015,-0.2333 0.1111,-0.0652 0.2024,-0.1358 0.2744,-0.2131 0.0717,-0.0771 0.1687,-0.2141 0.2906,-0.4111 l 0.3098,-0.494 h -0.6117 l -0.3697,0.5513 c -0.1315,0.197 -0.2213,0.3209 -0.2695,0.3722 -0.0482,0.0513 -0.0995,0.0862 -0.1539,0.1054 -0.0542,0.019 -0.1398,0.0284 -0.2577,0.0284 h -0.1035 v -1.0573 z m 0.5116,1.4618 h 0.3782 c 0.2454,0 0.3988,0.01 0.46,0.0309 0.0607,0.0204 0.1086,0.0564 0.1432,0.1071 0.0343,0.0508 0.0518,0.1137 0.0518,0.19 0,0.0853 -0.0229,0.1539 -0.068,0.2063 -0.0456,0.0525 -0.1097,0.0856 -0.193,0.0998 -0.0414,0.005 -0.1659,0.008 -0.3733,0.008 h -0.3989 v -0.6423 z"
   style="fill:#231f20;fill-opacity:1;fill-rule:nonzero;stroke:none"
   id="path3979" /><path
   d="m 343.853,526.4101 h -2.0313 v -0.7585 h -0.2721 v 1.8252 h 0.2721 v -0.7622 h 2.0313 z m -2.3034,-1.5772 v 0 0.3048 h 1.3314 c 0.2305,0 0.415,-0.0255 0.5511,-0.0788 0.136,-0.0525 0.2463,-0.1472 0.3319,-0.2838 0.0859,-0.1369 0.1281,-0.3158 0.1281,-0.5374 0,-0.216 -0.0371,-0.3926 -0.1117,-0.5295 -0.0737,-0.1372 -0.1819,-0.2353 -0.3228,-0.294 -0.1415,-0.059 -0.3325,-0.0873 -0.5766,-0.0873 h -1.3314 v 0.3039 h 1.3294 c 0.2007,0 0.3476,0.019 0.4422,0.0564 0.0941,0.0368 0.1681,0.1006 0.2189,0.191 0.0518,0.0907 0.0776,0.2016 0.0776,0.3323 0,0.2245 -0.051,0.3843 -0.153,0.4796 -0.1012,0.0944 -0.2968,0.1428 -0.5857,0.1428 z m 1.0953,-3.5319 v 0 0.5964 c 0,0.1959 -0.0369,0.3365 -0.1106,0.4187 -0.0734,0.083 -0.176,0.1247 -0.3084,0.1247 -0.0966,0 -0.1791,-0.0247 -0.2486,-0.0734 -0.0686,-0.0494 -0.1128,-0.1123 -0.1355,-0.1928 -0.0136,-0.051 -0.0201,-0.1457 -0.0201,-0.2846 v -0.589 z m 1.2081,-0.3047 v 0 h -2.3034 v 0.8693 c 0,0.1525 0.008,0.2699 0.0221,0.3498 0.0187,0.1131 0.0544,0.2084 0.1083,0.2843 0.0518,0.0772 0.1267,0.1384 0.2219,0.1852 0.095,0.0464 0.1999,0.0694 0.3135,0.0694 0.1962,0 0.3617,-0.0618 0.4981,-0.1865 0.1352,-0.125 0.2027,-0.3504 0.2027,-0.6755 v -0.5913 h 0.9368 z m 0,-2.5053 v 0 h -2.3034 v 0.3121 l 1.8082,1.2107 h -1.8082 v 0.2916 h 2.3034 v -0.312 l -1.8096,-1.2099 h 1.8096 z m 0,-1.0182 v 0 h -2.3034 v 0.3053 h 2.3034 z"
   style="fill:#231f20;fill-opacity:1;fill-rule:evenodd;stroke:none"
   id="path3981" /><path
   d="m 357.912,527.8082 v 3.9654 h 0.3864 v -3.9654 z"
   style="fill:#231f20;fill-opacity:1;fill-rule:nonzero;stroke:none"
   id="path3983" /><path
   d="m 353.2833,533.1657 v 0.1159 h 9.7591 v -6.9814 h -9.8745 v 6.9814 h 0.1154 v -0.1159 h 0.1159 v -6.6342 h 9.4119 v 6.5188 h -9.5278 v 0.1154 h 0.1159 z"
   style="fill:#231f20;fill-opacity:1;fill-rule:nonzero;stroke:none"
   id="path3985" /><path
   d="m 357.912,537.5614 v 3.9653 h 0.3864 v -3.9653 z"
   style="fill:#231f20;fill-opacity:1;fill-rule:nonzero;stroke:none"
   id="path3987" /><path
   d="m 353.2833,542.9194 v 0.1157 h 9.7591 v -6.9815 h -9.8745 v 6.9815 h 0.1154 v -0.1157 h 0.1159 v -6.6345 h 9.4119 v 6.5186 h -9.5278 v 0.1159 h 0.1159 z"
   style="fill:#231f20;fill-opacity:1;fill-rule:nonzero;stroke:none"
   id="path3989" /><path
   d="m 356.1225,520.23 h 3.9654 v -0.3857 h -3.9654 z"
   style="fill:#231f20;fill-opacity:1;fill-rule:nonzero;stroke:none"
   id="path3991" /><path
   d="m 357.912,518.0547 v 3.9657 h 0.3864 v -3.9657 z"
   style="fill:#231f20;fill-opacity:1;fill-rule:nonzero;stroke:none"
   id="path3993" /><path
   d="m 353.2833,523.4125 v 0.1159 h 9.7591 v -6.9814 h -9.8745 v 6.9814 h 0.1154 v -0.1159 h 0.1159 v -6.6342 h 9.4119 v 6.5186 h -9.5278 v 0.1156 h 0.1159 z"
   style="fill:#231f20;fill-opacity:1;fill-rule:nonzero;stroke:none"
   id="path3995" /><path
   d="m 353.2918,494.153 v 0.1157 h 9.7586 v -6.9812 h -9.8742 v 6.9812 h 0.1156 v -0.1157 h 0.1154 v -6.6345 h 9.4121 v 6.5191 h -9.5275 v 0.1154 h 0.1154 z"
   style="fill:#231f20;fill-opacity:1;fill-rule:nonzero;stroke:none"
   id="path3997" /><text
   transform="matrix(1,0,0,-1,356.1639,489.2443)"
   style="font-variant:normal;font-weight:normal;font-size:4.2670002px;font-family:Arial;-inkscape-font-specification:ArialMT;writing-mode:lr-tb;fill:#231f20;fill-opacity:1;fill-rule:nonzero;stroke:none"
   id="text4001"><tspan
     x="0 2.6104"
     y="0"
     id="tspan3999">1-</tspan></text>

<path
   d="m 356.1225,510.4774 h 3.9654 v -0.3857 h -3.9654 z"
   style="fill:#231f20;fill-opacity:1;fill-rule:nonzero;stroke:none"
   id="path4003" /><path
   d="m 353.2918,513.6593 v 0.1157 h 9.7586 v -6.9812 h -9.8742 v 6.9812 h 0.1156 v -0.1157 h 0.1154 v -6.6342 h 9.4121 v 6.5189 h -9.5275 v 0.1153 h 0.1154 z"
   style="fill:#231f20;fill-opacity:1;fill-rule:nonzero;stroke:none"
   id="path4005" /><path
   d="m 357.912,508.3019 v 3.9653 h 0.3864 v -3.9653 z"
   style="fill:#231f20;fill-opacity:1;fill-rule:nonzero;stroke:none"
   id="path4007" /><path
   d="m 353.2833,484.3998 v 0.116 h 9.7591 v -6.9815 h -9.8745 v 6.9815 h 0.1154 v -0.116 h 0.1159 v -6.6344 h 9.4119 v 6.5188 h -9.5278 v 0.1156 h 0.1159 z"
   style="fill:#231f20;fill-opacity:1;fill-rule:nonzero;stroke:none"
   id="path4009" /><path
   d="m 353.2918,474.6118 v 0.1159 h 9.7586 v -6.9814 h -9.8742 v 6.9814 h 0.1156 v -0.1159 h 0.1154 v -6.6342 h 9.4121 v 6.5188 h -9.5275 v 0.1154 h 0.1154 z"
   style="fill:#231f20;fill-opacity:1;fill-rule:nonzero;stroke:none"
   id="path4011" /><path
   d="m 353.2918,464.8935 v 0.1157 h 9.7586 v -6.9815 h -9.8742 v 6.9815 h 0.1156 v -0.1157 h 0.1154 v -6.6345 h 9.4121 v 6.5189 h -9.5275 v 0.1156 h 0.1154 z"
   style="fill:#231f20;fill-opacity:1;fill-rule:nonzero;stroke:none"
   id="path4013" /><path
   d="m 356.1225,500.724 h 3.9654 v -0.3855 h -3.9654 z"
   style="fill:#231f20;fill-opacity:1;fill-rule:nonzero;stroke:none"
   id="path4015" /><path
   d="m 353.2918,503.9062 v 0.1156 h 9.7586 v -6.9811 h -9.8742 v 6.9811 h 0.1156 v -0.1156 h 0.1154 v -6.6342 h 9.4121 v 6.5188 h -9.5275 v 0.1154 h 0.1154 z"
   style="fill:#231f20;fill-opacity:1;fill-rule:nonzero;stroke:none"
   id="path4017" /><path
   d="m 357.912,498.5487 v 3.9654 h 0.3864 v -3.9654 z"
   style="fill:#231f20;fill-opacity:1;fill-rule:nonzero;stroke:none"
   id="path4019" /><text
   transform="matrix(0,1,1,0,348.063,477.6171)"
   style="font-variant:normal;font-weight:normal;font-size:3.39899993px;font-family:Arial;-inkscape-font-specification:ArialMT;writing-mode:lr-tb;fill:#231f20;fill-opacity:1;fill-rule:nonzero;stroke:none"
   id="text4023"><tspan
     x="0 2.0795 4.5353999"
     y="0"
     id="tspan4021">LED</tspan></text>

<path
   d="m 347.7739,518.3773 v -0.2826 h -1.8026 c 0.065,-0.068 0.1299,-0.1573 0.1948,-0.2679 0.0649,-0.1108 0.1139,-0.21 0.146,-0.2982 h -0.273 c -0.0746,0.1585 -0.1647,0.2965 -0.2704,0.4153 -0.1063,0.1179 -0.209,0.2021 -0.3087,0.2517 v 0.1817 z m -0.2719,2.3905 h 0.2719 v -1.5228 c -0.068,-0.002 -0.1335,0.009 -0.1965,0.0326 -0.104,0.0386 -0.206,0.1009 -0.3069,0.1862 -0.1001,0.0859 -0.2166,0.2092 -0.3484,0.3702 -0.2055,0.2503 -0.3682,0.4199 -0.4884,0.508 -0.1194,0.0879 -0.2333,0.1318 -0.3402,0.1318 -0.112,0 -0.2064,-0.0402 -0.2837,-0.1202 -0.0766,-0.0802 -0.1151,-0.1851 -0.1151,-0.3138 0,-0.1363 0.0408,-0.2452 0.1227,-0.3265 0.0814,-0.0822 0.1948,-0.1236 0.339,-0.1247 l -0.0294,-0.2906 c -0.2175,0.0199 -0.3824,0.095 -0.4964,0.2248 -0.1137,0.1298 -0.1706,0.3047 -0.1706,0.5236 0,0.2208 0.062,0.396 0.1842,0.5247 0.1228,0.1292 0.2747,0.1936 0.4561,0.1936 0.0921,0 0.1828,-0.0187 0.2719,-0.057 0.089,-0.0374 0.1828,-0.1004 0.2812,-0.1877 0.0986,-0.0873 0.2335,-0.2327 0.4053,-0.4362 0.1426,-0.1695 0.2393,-0.2784 0.2903,-0.3266 0.0504,-0.0482 0.1012,-0.0881 0.153,-0.1196 z m -0.4195,0.4504 h -0.2846 v 0.8694 h 0.2846 z m 0.0831,1.2838 -0.0377,0.2826 c 0.1604,0.0326 0.2758,0.0879 0.3467,0.1659 0.0708,0.0782 0.1063,0.1732 0.1063,0.2854 0,0.133 -0.0463,0.2455 -0.1387,0.3373 -0.0921,0.091 -0.2066,0.1372 -0.3427,0.1372 -0.1298,0 -0.2372,-0.0422 -0.3211,-0.127 -0.0845,-0.0853 -0.1267,-0.193 -0.1267,-0.324 0,-0.0535 0.0107,-0.1202 0.0314,-0.1995 l -0.2483,0.0317 c 0.002,0.0187 0.003,0.0338 0.003,0.0457 0,0.1199 -0.0317,0.2284 -0.0947,0.3248 -0.0626,0.0967 -0.1598,0.1449 -0.2905,0.1449 -0.1035,0 -0.1899,-0.0355 -0.2577,-0.1055 -0.068,-0.0703 -0.1023,-0.161 -0.1023,-0.2721 0,-0.11 0.0348,-0.2016 0.1034,-0.2747 0.0692,-0.0734 0.1732,-0.1205 0.3119,-0.1414 l -0.0505,-0.2829 c -0.1899,0.0343 -0.337,0.1131 -0.4411,0.2355 -0.104,0.1228 -0.1567,0.2753 -0.1567,0.4575 0,0.1256 0.0275,0.2415 0.081,0.3473 0.0542,0.1054 0.1279,0.1865 0.2211,0.2429 0.0933,0.0556 0.1922,0.0842 0.2971,0.0842 0.0995,0 0.1899,-0.0269 0.2721,-0.0805 0.0817,-0.0536 0.1463,-0.1324 0.1948,-0.237 0.0309,0.1364 0.0964,0.2418 0.1959,0.3175 0.0986,0.0751 0.2225,0.1128 0.371,0.1128 0.2013,0 0.3719,-0.0731 0.5119,-0.2202 0.1398,-0.1463 0.2095,-0.332 0.2095,-0.5562 0,-0.2024 -0.0601,-0.3702 -0.1805,-0.5037 -0.1202,-0.1335 -0.2764,-0.2098 -0.4683,-0.2285 z m -1.1316,3.4348 0.0221,-0.281 c -0.1111,-0.0252 -0.1919,-0.0606 -0.2418,-0.1068 -0.0811,-0.0766 -0.1213,-0.171 -0.1213,-0.2832 0,-0.0901 0.0252,-0.1689 0.0757,-0.237 0.0649,-0.0893 0.1598,-0.1593 0.2843,-0.2109 0.1244,-0.051 0.3019,-0.0776 0.5326,-0.0799 -0.1035,0.068 -0.1806,0.1514 -0.2313,0.25 -0.0499,0.0981 -0.0748,0.2015 -0.0748,0.3095 0,0.1888 0.0691,0.3493 0.2077,0.4816 0.1392,0.1324 0.3184,0.199 0.5383,0.199 0.1449,0 0.279,-0.0317 0.4034,-0.0938 0.1239,-0.0623 0.2194,-0.148 0.2855,-0.2568 0.0657,-0.1091 0.0986,-0.2324 0.0986,-0.3708 0,-0.2361 -0.0864,-0.428 -0.2602,-0.5768 -0.1732,-0.1491 -0.4592,-0.2231 -0.8572,-0.2231 -0.4453,0 -0.7688,0.0822 -0.9709,0.2469 -0.176,0.1431 -0.2647,0.3362 -0.2647,0.58 0,0.1805 0.0513,0.3293 0.153,0.445 0.1015,0.1159 0.2418,0.1851 0.421,0.2081 z m 0.9932,-1.1549 c 0.0976,0 0.1908,0.021 0.2798,0.0624 0.089,0.0411 0.1568,0.0992 0.2036,0.1732 0.0464,0.0745 0.0703,0.1528 0.0703,0.2344 0,0.1196 -0.0485,0.222 -0.1449,0.3078 -0.0967,0.0859 -0.2276,0.1287 -0.3929,0.1287 -0.1593,0 -0.2849,-0.0422 -0.3764,-0.127 -0.0919,-0.0847 -0.1372,-0.1916 -0.1372,-0.3203 0,-0.1281 0.0453,-0.2364 0.1372,-0.3257 0.0915,-0.089 0.2117,-0.1335 0.3605,-0.1335 z m 0.7467,2.429 -2.3043,-0.8926 v 0.3305 l 1.6739,0.5987 c 0.134,0.0485 0.2602,0.0884 0.377,0.1208 -0.1256,0.036 -0.2509,0.0773 -0.377,0.1244 l -1.6739,0.6222 v 0.3112 l 2.3043,-0.9022 z m 0,1.6677 h -2.3043 v 0.7934 c 0,0.1791 0.0113,0.3157 0.0335,0.4101 0.03,0.1321 0.0853,0.245 0.1646,0.3379 0.1032,0.1216 0.2339,0.2126 0.3938,0.2727 0.1599,0.0607 0.3424,0.0904 0.5476,0.0904 0.1749,0 0.33,-0.0201 0.4652,-0.0615 0.1352,-0.0408 0.2475,-0.0927 0.3359,-0.157 0.0884,-0.0641 0.1582,-0.1338 0.2086,-0.2098 0.0511,-0.0757 0.0896,-0.1675 0.1157,-0.2746 0.0264,-0.108 0.0394,-0.2313 0.0394,-0.3702 z m -0.2719,0.3047 v 0.4918 c 0,0.1519 -0.0141,0.2713 -0.0425,0.3577 -0.0286,0.0865 -0.0683,0.1551 -0.1196,0.2067 -0.072,0.0722 -0.1695,0.1287 -0.2914,0.1689 -0.1222,0.0403 -0.2696,0.0607 -0.4442,0.0607 -0.2409,0 -0.4257,-0.0397 -0.5553,-0.1185 -0.1295,-0.0794 -0.216,-0.1755 -0.2599,-0.2889 -0.0318,-0.0813 -0.0474,-0.2134 -0.0474,-0.394 v -0.4844 z m -0.536,3.8421 0.0771,0.3052 c 0.25,-0.064 0.4408,-0.1791 0.5732,-0.3452 0.1312,-0.1661 0.1967,-0.3688 0.1967,-0.6092 0,-0.2486 -0.0504,-0.4501 -0.1514,-0.6055 -0.1012,-0.1556 -0.2477,-0.2744 -0.4393,-0.3554 -0.1919,-0.0811 -0.398,-0.1216 -0.618,-0.1216 -0.2398,0 -0.4487,0.0456 -0.6276,0.1374 -0.1786,0.0916 -0.3143,0.222 -0.407,0.3915 -0.0927,0.169 -0.1389,0.3552 -0.1389,0.5584 0,0.2308 0.0584,0.4241 0.1757,0.5814 0.1177,0.1573 0.2821,0.2668 0.4952,0.3283 l 0.0709,-0.2996 c -0.1681,-0.0536 -0.2897,-0.131 -0.3665,-0.2331 -0.0768,-0.1011 -0.1145,-0.229 -0.1145,-0.3835 0,-0.1769 0.0422,-0.3245 0.127,-0.4436 0.0853,-0.1191 0.1989,-0.2027 0.3421,-0.2503 0.1429,-0.0485 0.2903,-0.0726 0.4419,-0.0726 0.1965,0 0.3671,0.0284 0.5137,0.0854 0.1457,0.0572 0.2551,0.1459 0.3276,0.2664 0.0723,0.1208 0.1083,0.2512 0.1083,0.3918 0,0.1703 -0.0493,0.3149 -0.1477,0.4334 -0.0986,0.1185 -0.2449,0.1984 -0.4385,0.2404"
   style="fill:#231f20;fill-opacity:1;fill-rule:nonzero;stroke:none"
   id="path4025" /><path
   d="m 353.1762,500.5312 h -3.8098 v -39.0126 h 3.8202"
   style="fill:none;stroke:#231f20;stroke-width:0.21600001;stroke-linecap:butt;stroke-linejoin:miter;stroke-miterlimit:22.92558479;stroke-dasharray:none;stroke-opacity:1"
   id="path4027" /><path
   d="m 353.1762,539.5442 h -3.8098 v -29.202 h 3.8202"
   style="fill:none;stroke:#231f20;stroke-width:0.21600001;stroke-linecap:butt;stroke-linejoin:miter;stroke-miterlimit:22.92558479;stroke-dasharray:none;stroke-opacity:1"
   id="path4029" /><text
   transform="matrix(1,0,0,-1,356.1562,479.4914)"
   style="font-variant:normal;font-weight:normal;font-size:4.2670002px;font-family:Arial;-inkscape-font-specification:ArialMT;writing-mode:lr-tb;fill:#231f20;fill-opacity:1;fill-rule:nonzero;stroke:none"
   id="text4033"><tspan
     x="0 2.6106999"
     y="0"
     id="tspan4031">2-</tspan></text>

<text
   transform="matrix(1,0,0,-1,356.1639,469.7303)"
   style="font-variant:normal;font-weight:normal;font-size:4.2670002px;font-family:Arial;-inkscape-font-specification:ArialMT;writing-mode:lr-tb;fill:#231f20;fill-opacity:1;fill-rule:nonzero;stroke:none"
   id="text4037"><tspan
     x="0 2.6104"
     y="0"
     id="tspan4035">3-</tspan></text>

<text
   transform="matrix(1,0,0,-1,356.1639,459.9916)"
   style="font-variant:normal;font-weight:normal;font-size:4.2670002px;font-family:Arial;-inkscape-font-specification:ArialMT;writing-mode:lr-tb;fill:#231f20;fill-opacity:1;fill-rule:nonzero;stroke:none"
   id="text4041"><tspan
     x="0 2.6104"
     y="0"
     id="tspan4039">4-</tspan></text>

<text
   transform="matrix(1,0,0,-1,230.5684,471.1703)"
   style="font-variant:normal;font-weight:normal;font-size:4.08300018px;font-family:Arial;-inkscape-font-specification:ArialMT;writing-mode:lr-tb;fill:#231f20;fill-opacity:1;fill-rule:nonzero;stroke:none"
   id="text4045"><tspan
     x="0 2.95 4.5363002 7.0342002 9.5320997"
     y="0"
     id="tspan4043">Prog.</tspan></text>

<path
   d="m 235.7252,476.4393 c 1.599,0 2.8956,1.2966 2.8956,2.8956 0,1.5987 -1.2966,2.8956 -2.8956,2.8956 -1.5988,0 -2.8956,-1.2969 -2.8956,-2.8956 0,-1.599 1.2968,-2.8956 2.8956,-2.8956 z"
   style="fill:#231f20;fill-opacity:1;fill-rule:evenodd;stroke:#231f20;stroke-width:0.56690001;stroke-linecap:butt;stroke-linejoin:miter;stroke-miterlimit:22.92558479;stroke-dasharray:none;stroke-opacity:1"
   id="path4047" /><text
   transform="matrix(1,0,0,-1,225.1517,532.7603)"
   style="font-variant:normal;font-weight:bold;font-size:8.16399956px;font-family:Arial;-inkscape-font-specification:'ArialMT Bold';writing-mode:lr-tb;fill:#231f20;fill-opacity:1;fill-rule:nonzero;stroke:none"
   id="text4051"><tspan
     x="0 5.8989 12.2485 15.4208 20.861099 26.7603 31.7547 36.748798 41.743198 46.737301 52.177601 58.0765 61.248501 67.147697"
     y="0"
     id="tspan4049">SR-ZV9101FX-EU</tspan></text>

<path
   d="m 272.7513,465.0758 c 2.1994,0 3.9929,-1.8746 3.9929,-4.1735 0,-2.2986 -1.7935,-4.1731 -3.9929,-4.1731 -2.1994,0 -3.9932,1.8745 -3.9932,4.1731 0,2.2989 1.7938,4.1735 3.9932,4.1735 z"
   style="fill:none;stroke:#231f20;stroke-width:0.85039997;stroke-linecap:butt;stroke-linejoin:miter;stroke-miterlimit:22.92558479;stroke-dasharray:none;stroke-opacity:1"
   id="path4053" /><path
   d="m 270.5049,463.5765 h 4.4931 v -1.5698 h -4.4931 z"
   style="fill:none;stroke:#231f20;stroke-width:0.85039997;stroke-linecap:butt;stroke-linejoin:miter;stroke-miterlimit:22.92558479;stroke-dasharray:none;stroke-opacity:1"
   id="path4055" /><path
   d="m 270.5029,461.99 -0.0241,-2.5486 -1.5602,-0.01"
   style="fill:none;stroke:#231f20;stroke-width:0.85039997;stroke-linecap:butt;stroke-linejoin:miter;stroke-miterlimit:22.92558479;stroke-dasharray:none;stroke-opacity:1"
   id="path4057" /><path
   d="m 274.9949,461.99 0.0238,-2.5486 1.5605,-0.01"
   style="fill:none;stroke:#231f20;stroke-width:0.85039997;stroke-linecap:butt;stroke-linejoin:miter;stroke-miterlimit:22.92558479;stroke-dasharray:none;stroke-opacity:1"
   id="path4059" /><path
   d="m 280.8626,456.8556 v 7.4327 h 3.1527 c 0.6341,0 1.1158,-0.0674 1.4454,-0.2007 0.3297,-0.1332 0.5927,-0.3688 0.7915,-0.7061 0.197,-0.339 0.2948,-0.7129 0.2948,-1.1214 0,-0.5278 -0.1625,-0.9708 -0.4901,-1.3325 -0.3263,-0.3617 -0.8312,-0.5919 -1.5135,-0.6906 0.25,-0.1244 0.4388,-0.2474 0.5681,-0.3702 0.2747,-0.263 0.5346,-0.5935 0.7815,-0.9881 l 1.2368,-2.0231 h -1.1841 l -0.9402,1.5471 c -0.275,0.4448 -0.5018,0.7875 -0.6806,1.0228 -0.1772,0.237 -0.3362,0.4034 -0.4768,0.4966 -0.1409,0.0953 -0.2832,0.161 -0.4289,0.199 -0.1077,0.0224 -0.2815,0.0346 -0.525,0.0346 h -1.091 v -3.3001 z m 0.9406,4.1516 h 2.0234 c 0.4285,0 0.7664,0.0468 1.0082,0.14 0.2435,0.0936 0.4272,0.2424 0.5531,0.4465 0.1258,0.2044 0.1888,0.426 0.1888,0.6664 0,0.3515 -0.1211,0.6404 -0.366,0.8669 -0.2435,0.2267 -0.6293,0.3393 -1.1574,0.3393 h -2.2501 z m 6.334,-1.459 c 0,0.997 0.265,1.7357 0.7962,2.2153 0.4423,0.398 0.982,0.5987 1.6195,0.5987 0.7086,0 1.2883,-0.2421 1.7371,-0.7285 0.4501,-0.4848 0.6737,-1.1543 0.6737,-2.0092 0,-0.6939 -0.0994,-1.2391 -0.2979,-1.6353 -0.1987,-0.3983 -0.4884,-0.7061 -0.8677,-0.9261 -0.3807,-0.2197 -0.7948,-0.3288 -1.2452,-0.3288 -0.72,0 -1.3031,0.2406 -1.7484,0.7254 -0.4454,0.4827 -0.6673,1.1783 -0.6673,2.0885 z m 0.8974,0 c 0,-0.6905 0.144,-1.2061 0.432,-1.5488 0.2883,-0.3444 0.6509,-0.5157 1.0863,-0.5157 0.434,0 0.7948,0.1732 1.0831,0.5174 0.2863,0.3444 0.4303,0.8705 0.4303,1.5766 0,0.6661 -0.144,1.1716 -0.4337,1.5143 -0.29,0.3427 -0.6491,0.5139 -1.0797,0.5139 -0.4354,0 -0.798,-0.1712 -1.0863,-0.5122 -0.288,-0.3408 -0.432,-0.8567 -0.432,-1.5455 z m 5.6452,-2.6926 v 7.4327 h 0.942 v -3.0526 h 3.6958 v 3.0526 h 0.9422 v -7.4327 h -0.9422 v 3.5028 h -3.6958 v -3.5028 z m 7.3789,2.3882 0.8875,0.0813 c 0.0414,-0.3722 0.1389,-0.6769 0.2931,-0.9156 0.154,-0.2386 0.3924,-0.4308 0.7152,-0.5779 0.3229,-0.1472 0.6874,-0.2197 1.0911,-0.2197 0.3594,0 0.6758,0.0552 0.9507,0.1661 0.2747,0.1122 0.4799,0.2647 0.6143,0.4583 0.1341,0.1959 0.2018,0.4071 0.2018,0.637 0,0.2338 -0.0643,0.4362 -0.1953,0.6111 -0.1293,0.1747 -0.3427,0.3201 -0.6392,0.4377 -0.1922,0.078 -0.6126,0.199 -1.2665,0.3634 -0.6526,0.1644 -1.1112,0.3186 -1.3726,0.4638 -0.3396,0.1853 -0.593,0.4169 -0.7602,0.6922 -0.1656,0.2752 -0.2483,0.5834 -0.2483,0.9261 0,0.3736 0.1009,0.7251 0.3047,1.0502 0.2035,0.3271 0.5017,0.5746 0.8923,0.7444 0.3926,0.1678 0.8263,0.2525 1.3048,0.2525 0.5284,0 0.9919,-0.0881 1.3958,-0.2667 0.4025,-0.1763 0.7121,-0.4377 0.9289,-0.7821 0.2155,-0.3444 0.3328,-0.7353 0.3495,-1.1715 l -0.9025,-0.0712 c -0.0496,0.4691 -0.2135,0.8257 -0.4935,1.0647 -0.2798,0.2404 -0.692,0.3597 -1.2382,0.3597 -0.5698,0 -0.9839,-0.1088 -1.2453,-0.3271 -0.2599,-0.218 -0.3909,-0.481 -0.3909,-0.7875 0,-0.2678 0.0927,-0.4878 0.2764,-0.659 0.1823,-0.1732 0.6543,-0.3498 1.419,-0.5295 0.7651,-0.182 1.2901,-0.3393 1.575,-0.4743 0.4138,-0.2007 0.7203,-0.4535 0.9173,-0.7579 0.197,-0.3065 0.2945,-0.6597 0.2945,-1.0577 0,-0.3962 -0.1075,-0.7681 -0.3243,-1.1179 -0.2171,-0.3496 -0.5284,-0.6214 -0.934,-0.8167 -0.4057,-0.1939 -0.8626,-0.2908 -1.3694,-0.2908 -0.6441,0 -1.1838,0.0969 -1.6178,0.2942 -0.4354,0.1956 -0.7764,0.4898 -1.0247,0.8844 -0.2469,0.3926 -0.3776,0.8393 -0.3892,1.336"
   style="fill:#231f20;fill-opacity:1;fill-rule:evenodd;stroke:none"
   id="path4061" /><text
   transform="matrix(1,0,0,-1,225.1517,525.1578)"
   style="font-variant:normal;font-weight:normal;font-size:5.98799992px;font-family:Arial;-inkscape-font-specification:ArialMT;writing-mode:lr-tb;fill:#231f20;fill-opacity:1;fill-rule:nonzero;stroke:none"
   id="text4065"><tspan
     x="0 3.99 6.3164001 12.0781 15.741 19.067499 22.396828 24.061493 27.724199 32.050999 36.374336 38.039001 42.6959 44.3587 49.679001 54.999599 58.662498"
     y="0"
     id="tspan4063">Z-Wave LED Dimmer</tspan></text>

<path
   d="m 261.466,460.3277 c 0.2792,-1.3234 1.4528,-2.2918 2.859,-2.2918 0.1353,0 0.3016,0.009 0.4315,0.027 v -1.2677 c -0.1409,-0.0144 -0.3425,-0.0332 -0.487,-0.0332 -2.3618,0 -4.1828,1.8859 -4.1828,4.1987 0,2.3131 1.8958,4.1885 4.2089,4.1885 0.1445,0 0.32,-0.008 0.4609,-0.0218 l -0.006,-1.2731 c -0.1284,0.017 -0.2922,0.0267 -0.4258,0.0267 -1.3963,0 -2.5642,-0.9794 -2.8533,-2.2896 h 2.4126 v -1.262 l -2.4183,-0.002 z"
   style="fill:#231f20;fill-opacity:1;fill-rule:evenodd;stroke:#231f20;stroke-width:0.21600001;stroke-linecap:butt;stroke-linejoin:miter;stroke-miterlimit:22.92558479;stroke-dasharray:none;stroke-opacity:1"
   id="path4067" /><path
   d="m 257.6146,463.8543 c -0.1281,0.017 -0.2665,0.0267 -0.3997,0.0267 -1.614,0 -2.9222,-1.3085 -2.9222,-2.9225 0,-1.6144 1.3082,-2.9226 2.9222,-2.9226 0.1352,0 0.2687,0.009 0.3988,0.027 l -0.002,-1.268 c -0.1401,-0.0141 -0.2823,-0.0212 -0.4263,-0.0212 -2.3128,0 -4.188,1.8748 -4.188,4.1873 0,2.3134 1.8582,4.1984 4.1712,4.1984 0.1449,0 0.3045,-0.0179 0.4456,-0.032 l 9e-4,-1.2731 z"
   style="fill:#231f20;fill-opacity:1;fill-rule:evenodd;stroke:#231f20;stroke-width:0.21600001;stroke-linecap:butt;stroke-linejoin:miter;stroke-miterlimit:22.92558479;stroke-dasharray:none;stroke-opacity:1"
   id="path4069" /><path
   d="m 312.954,458.339 v 0 h 8.2938 v -1.6098 h -8.2938 z"
   style="fill:#231f20;fill-opacity:1;fill-rule:evenodd;stroke:none"
   id="path4071" /><path
   d="m 312.3,459.0159 3.0356,3.0787 -0.3039,3.4546 -2.8233,2.9375 v 0.3875 l 2.7848,-2.8973 -0.0771,0.8853 h -0.3532 v 0.2817 h 0.3328 c 0.001,0.0202 0.004,0.0417 0.009,0.0641 0.0499,0.2356 0.3019,0.3864 0.5241,0.4776 v 0.2141 h 0.5227 v -0.0454 c 0.2421,0.0626 0.4876,0.1094 0.735,0.1366 v 0.0601 h 1.374 v -0.0844 c 0.0833,-0.0154 0.163,-0.0301 0.2441,-0.0497 0.3203,-0.0705 0.8509,-0.2256 1.0794,-0.5303 0.0641,0.106 0.1786,0.1763 0.3124,0.1763 0.2001,0 0.3631,-0.163 0.3631,-0.3645 0,-0.2004 -0.163,-0.3632 -0.3631,-0.3632 -0.0496,0 -0.0973,0.009 -0.1395,0.027 h -0.0802 l -0.0371,-0.4453 h 0.1584 l 2.5492,2.5857 v -0.3827 l -2.1719,-2.203 h 0.0743 v -0.9874 h -0.6931 l -0.3047,-3.6728 2.6223,-2.7289 -0.1925,-0.1863 -1.8292,1.9024 c 0.007,-0.0406 0.01,-0.0845 0.01,-0.1265 0,-0.4509 -0.3654,-0.8172 -0.8158,-0.8172 -0.3082,0 -0.5743,0.1701 -0.7138,0.4207 h -2.0137 v -0.4088 h -0.521 v 0.4714 c -0.0684,0.0454 -0.1117,0.116 -0.1205,0.2126 l -0.1097,1.247 -2.8752,-2.9166 -0.1919,0.1894 z m 6.5458,1.8657 v 0 c -0.1472,0 -0.2656,-0.1185 -0.2656,-0.2642 0,-0.1468 0.1184,-0.2658 0.2656,-0.2658 0.1471,0 0.2659,0.119 0.2659,0.2658 0,0.1457 -0.1188,0.2642 -0.2659,0.2642 z m -0.0528,0.7566 v 0 l -1.7427,1.8128 -1.455,-1.476 0.1278,-1.4573 c 0.001,-0.01 0.003,-0.0216 0.0114,-0.0272 0.034,-0.0258 0.1357,-0.0199 0.1768,-0.0199 h 2.1314 c -0.009,0.0471 -0.0139,0.0958 -0.0139,0.1468 0,0.4261 0.3286,0.7759 0.7458,0.813 z m -3.2289,0.688 v 0 l 1.3005,1.3175 -1.5576,1.6212 z m -0.2957,3.3647 v 0 l 1.7845,-1.8558 1.0131,1.0275 h -1.4015 v 0.5423 h 1.7527 v -0.1851 l 0.6613,0.6712 v 0.5259 h 0.1105 l 0.0383,0.4453 h -4.0606 z m 4.468,0.483 v 0 l -0.3472,-0.3512 -0.0119,-0.1519 h 0.43 v 0.5031 z m -0.6579,-0.6667 v 0 l -1.8394,-1.866 1.5826,-1.6461 0.2857,3.4344 h -0.0289 z m -3.9342,1.6367 v 0 h 0.284 v 0.2699 c -0.1312,-0.0658 -0.2687,-0.1596 -0.284,-0.2699 z m 0.8067,0.453 v 0 -0.453 h 3.2817 c -0.0882,0.2985 -0.7251,0.474 -0.9836,0.5327 -0.0607,0.0119 -0.1248,0.026 -0.1891,0.036 v -0.2869 h -1.374 v 0.3155 c -0.2474,-0.0301 -0.4929,-0.0771 -0.735,-0.1443 z m 2.8948,-6.5404 v 0 c 0.2426,0 0.4402,-0.197 0.4402,-0.4391 0,-0.244 -0.1976,-0.4402 -0.4402,-0.4402 -0.2424,0 -0.44,0.1962 -0.44,0.4402 0,0.2421 0.1976,0.4391 0.44,0.4391 z m -1.9185,6.7533 v 0 h 0.8901 v -0.1432 h -0.8901 z"
   style="fill:#231f20;fill-opacity:1;fill-rule:evenodd;stroke:none"
   id="path4073" /><text
   transform="matrix(1,0,0,-1,197.2534,505.2606)"
   style="font-variant:normal;font-weight:normal;font-size:4.42199993px;font-family:Arial;-inkscape-font-specification:ArialMT;writing-mode:lr-tb;fill:#231f20;fill-opacity:1;fill-rule:nonzero;stroke:none"
   id="text4081"><tspan
     x="0 3.1949 6.6339002 8.1082001"
     y="0"
     id="tspan4075">PRI:</tspan><tspan
     x="-0.00030000001 3.4387 4.6669998 7.3717999 10.1996 12.9047 15.6098 17.328199 20.033001 22.737801 25.932699 29.3717"
     y="6.1279001"
     id="tspan4077">Uin=12-36VDC</tspan><tspan
     x="-0.0023000001 1.4717 2.6997001 5.4047999 8.2328997 10.938 13.6431 15.1174 17.8225"
     y="12.2556"
     id="tspan4079">Iin=20.5A</tspan></text>

<text
   transform="matrix(1,0,0,-1,253.6843,517.5162)"
   style="font-variant:normal;font-weight:normal;font-size:4.42199993px;font-family:Arial;-inkscape-font-specification:ArialMT;writing-mode:lr-tb;fill:#231f20;fill-opacity:1;fill-rule:nonzero;stroke:none"
   id="text4093"><tspan
     x="0 3.1952 6.3901 9.8290997"
     y="0"
     id="tspan4083">SEC:</tspan><tspan
     x="-0.00030000001 3.4389999 6.1441002 8.8492002 10.3235 13.1516 15.8564 18.312901 20.0313 22.736401 25.4415 27.159901 29.8647 32.5695 34.287601 37.4828 40.921799"
     y="6.1279001"
     id="tspan4085">Uout=4x(12-36)VDC</tspan><tspan
     x="-0.0017 1.4726 4.1777 6.8828001 8.3568001 11.1849 13.8897 16.346201 19.051001"
     y="12.2556"
     id="tspan4087">Iout=4x5A</tspan><tspan
     x="-0.0029 3.1923001 5.8971 8.6019001 10.0759 12.9037 15.6085 18.065001 19.7831 22.488199 25.1933 26.911699 29.6168 32.321899 35.027 36.745399"
     y="18.383499"
     id="tspan4089">Pout=4x(60-180)W</tspan><tspan
     x="-0.0049000001 2.9419999 6.1371999 10.0663 12.9361 14.165416 17.603901 20.799101 24.2381 27.923401 31.118299 32.5923 34.310398 37.015499"
     y="24.5112"
     id="tspan4091">TEMP RANGE:-20</tspan></text>

<text
   transform="matrix(1,0,0,-1,293.1591,493.005)"
   style="font-variant:normal;font-weight:normal;font-size:4.42199993px;font-family:SimSun;-inkscape-font-specification:SimSun;writing-mode:lr-tb;fill:#231f20;fill-opacity:1;fill-rule:nonzero;stroke:none"
   id="text4097"><tspan
     x="0"
     y="0"
     id="tspan4095"></tspan></text>

<text
   transform="matrix(1,0,0,-1,297.5809,493.005)"
   style="font-variant:normal;font-weight:normal;font-size:4.42199993px;font-family:Arial;-inkscape-font-specification:ArialMT;writing-mode:lr-tb;fill:#231f20;fill-opacity:1;fill-rule:nonzero;stroke:none"
   id="text4101"><tspan
     x="0 1.7184 4.5461998 7.2512999"
     y="0"
     id="tspan4099">-+50</tspan></text>

<text
   transform="matrix(1,0,0,-1,307.2915,493.005)"
   style="font-variant:normal;font-weight:normal;font-size:4.42199993px;font-family:SimSun;-inkscape-font-specification:SimSun;writing-mode:lr-tb;fill:#231f20;fill-opacity:1;fill-rule:nonzero;stroke:none"
   id="text4105"><tspan
     x="0"
     y="0"
     id="tspan4103"></tspan></text>

<path
   d="m 312.8587,537.834 c 0.1338,-0.062 0.2628,-0.062 0.3875,0 0.125,0.0621 0.1916,0.1718 0.201,0.3274 0.008,0.1562 -0.0536,0.2719 -0.1871,0.347 -0.1341,0.076 -0.2676,0.0782 -0.4014,0.007 -0.1335,-0.0714 -0.2001,-0.1871 -0.2001,-0.3472 0,-0.1602 0.0666,-0.2722 0.2001,-0.3343 z m 2.793,-0.6128 0.0434,-0.2656 c -0.0845,-0.0179 -0.1602,-0.0269 -0.2271,-0.0269 -0.1091,0 -0.1936,0.017 -0.2543,0.0521 -0.0598,0.034 -0.102,0.0797 -0.1264,0.1361 -0.0247,0.0558 -0.0371,0.1743 -0.0371,0.3546 v 1.0208 h -0.2206 v 0.2335 h 0.2206 v 0.4397 l 0.2993,0.18 v -0.6197 h 0.3022 v -0.2335 h -0.3022 v -1.0372 c 0,-0.0862 0.005,-0.1409 0.0153,-0.1656 0.0111,-0.0244 0.0281,-0.0439 0.0519,-0.0587 0.0241,-0.0141 0.0581,-0.0215 0.1026,-0.0215 0.0337,0 0.0777,0.004 0.1324,0.0119 z m 1.6415,0.381 0.2954,-0.0389 c -0.032,-0.2035 -0.1145,-0.3631 -0.248,-0.4784 -0.133,-0.1151 -0.2965,-0.1727 -0.4901,-0.1727 -0.2424,0 -0.438,0.0794 -0.5851,0.2378 -0.1477,0.1585 -0.2217,0.3858 -0.2217,0.6823 0,0.1917 0.0318,0.3592 0.0953,0.5029 0.0637,0.1437 0.1598,0.2514 0.2899,0.3234 0.1296,0.0718 0.271,0.1078 0.423,0.1078 0.1927,0 0.3506,-0.0491 0.4728,-0.1466 0.1224,-0.0975 0.2013,-0.2355 0.2361,-0.415 l -0.2925,-0.0451 c -0.0278,0.1191 -0.0771,0.2087 -0.1477,0.2691 -0.0709,0.0598 -0.1562,0.0901 -0.2565,0.0901 -0.1517,0 -0.275,-0.0544 -0.3694,-0.163 -0.0947,-0.1086 -0.1423,-0.2801 -0.1423,-0.5148 0,-0.2384 0.0459,-0.4118 0.1378,-0.5201 0.091,-0.1077 0.2103,-0.1619 0.3571,-0.1619 0.1182,0 0.2163,0.0366 0.2957,0.1089 0.0791,0.0723 0.1293,0.1837 0.1502,0.3342 z m 2.3244,0.7894 h -1.6166 v 0.2812 h 1.6166 z m 0,-0.7427 h -1.6166 v 0.2804 h 1.6166 z m 0.5426,1.431 v 0.2888 h 1.5848 v -0.2336 c -0.1556,-0.1661 -0.3101,-0.3866 -0.4634,-0.6613 -0.1528,-0.2749 -0.2713,-0.5581 -0.3546,-0.8484 -0.0604,-0.2052 -0.0987,-0.4291 -0.1151,-0.6732 h -0.309 c 0.003,0.1927 0.0411,0.4252 0.1134,0.6982 0.0723,0.2727 0.1763,0.536 0.3112,0.7891 0.1358,0.2532 0.2795,0.4672 0.432,0.6404 z m 2.0724,-1.4865 0.3161,0.0269 c 0.0232,-0.1539 0.0773,-0.269 0.1624,-0.3467 0.0853,-0.0773 0.1882,-0.1162 0.3084,-0.1162 0.1448,0 0.2673,0.0547 0.3671,0.1636 0.1003,0.1094 0.1505,0.2542 0.1505,0.4342 0,0.1718 -0.0479,0.307 -0.1443,0.4062 -0.0961,0.0993 -0.2222,0.1489 -0.3784,0.1489 -0.097,0 -0.1843,-0.0224 -0.2625,-0.0664 -0.0779,-0.0436 -0.1389,-0.1009 -0.1834,-0.1709 l -0.2823,0.0366 0.2372,1.2577 h 1.2178 v -0.2874 h -0.9771 l -0.1324,-0.6579 c 0.1471,0.1026 0.3016,0.1539 0.4629,0.1539 0.2137,0 0.394,-0.074 0.5411,-0.2223 0.1472,-0.1482 0.2206,-0.3387 0.2206,-0.5714 0,-0.2217 -0.0649,-0.4133 -0.1936,-0.5746 -0.1576,-0.1979 -0.3719,-0.2971 -0.6432,-0.2971 -0.2231,0 -0.4048,0.0621 -0.5457,0.1871 -0.1409,0.1247 -0.2214,0.2903 -0.2412,0.4958"
   style="fill:#231f20;fill-opacity:1;fill-rule:evenodd;stroke:none"
   id="path4107" /><path
   d="m 326.8123,539.0504 c -0.0618,0.0621 -0.1446,0.1239 -0.2467,0.1868 -0.1026,0.0621 -0.2276,0.1088 -0.3747,0.1403 -0.1466,0.0315 -0.309,0.0199 -0.4876,-0.0337 -0.1777,-0.053 -0.3407,-0.1894 -0.4872,-0.4076 -0.1472,-0.218 -0.2121,-0.4967 -0.1939,-0.8348 0.0175,-0.3385 0.1043,-0.6058 0.2605,-0.8023 0.1559,-0.1953 0.345,-0.3072 0.568,-0.3339 0.2223,-0.0261 0.4184,0.005 0.5877,0.0941 0.1692,0.0888 0.2965,0.1894 0.3809,0.3005 0.0845,0.1111 0.1202,0.18 0.1072,0.2069 -0.0139,0.0267 -0.0629,-0.0107 -0.1471,-0.1133 -0.0851,-0.1029 -0.2075,-0.1894 -0.3677,-0.2605 -0.1604,-0.0715 -0.3342,-0.0913 -0.5213,-0.0607 -0.1871,0.0315 -0.3384,0.1363 -0.4541,0.3144 -0.1159,0.1783 -0.1757,0.4229 -0.1803,0.7347 -0.004,0.3118 0.0559,0.5593 0.1803,0.7418 0.1247,0.1823 0.294,0.2917 0.5077,0.3271 0.214,0.036 0.4031,0 0.5681,-0.1065 0.1647,-0.1072 0.265,-0.2452 0.3002,-0.4145 v -0.2406 h 0.1074 v 0.7217 h -0.1074 z m -2.3446,0.2934 c -0.0584,-0.053 -0.0845,-0.1242 -0.0805,-0.2138 0.005,-0.089 0.0335,-0.1581 0.087,-0.2069 0.0536,-0.049 0.1205,-0.076 0.2002,-0.0805 0.0805,-0.004 0.1496,0.0162 0.2077,0.0604 0.0576,0.0445 0.0933,0.1069 0.1063,0.1871 0.0139,0.0805 0.005,0.1516 -0.0266,0.214 -0.0306,0.0618 -0.0797,0.1049 -0.1471,0.127 -0.0666,0.0221 -0.1264,0.0269 -0.18,0.013 -0.0539,-0.013 -0.1092,-0.0467 -0.167,-0.1003 z m 0.3271,-0.3671 c -0.053,-0.0315 -0.1114,-0.036 -0.1732,-0.0136 -0.0629,0.0221 -0.0983,0.0734 -0.1074,0.1539 -0.009,0.0802 0.0179,0.1423 0.0805,0.1871 0.0621,0.0442 0.1225,0.0536 0.1803,0.0266 0.0578,-0.0266 0.0887,-0.085 0.0933,-0.174 0.005,-0.0887 -0.0199,-0.1494 -0.0735,-0.18"
   style="fill:#231f20;fill-opacity:1;fill-rule:evenodd;stroke:none"
   id="path4109" /><path
   d="m 313.2309,530.6343 h 8.2117 v -2.2926 h -8.2117 z"
   style="fill:#231f20;fill-opacity:1;fill-rule:evenodd;stroke:#231f20;stroke-width:0.21600001;stroke-linecap:butt;stroke-linejoin:miter;stroke-miterlimit:22.92558479;stroke-dasharray:none;stroke-opacity:1"
   id="path4111" /><path
   d="m 321.4723,531.2446 h 8.911 c -1.0394,-1.4096 0.9295,-2.3788 1.1741,-3.5132 h -10.0851 z"
   style="fill:none;stroke:#231f20;stroke-width:0.34020001;stroke-linecap:butt;stroke-linejoin:miter;stroke-miterlimit:22.92558479;stroke-dasharray:none;stroke-opacity:1"
   id="path4113" /><path
   d="m 313.5716,526.5312 0.5451,0.2996 0.5451,0.2991 v -0.4425 h 5.6041 v 0.4425 l 0.5451,-0.2991 0.5451,-0.2996 -0.5451,-0.2996 -0.5451,-0.2991 v 0.4581 h -5.6041 v -0.4581 l -0.5451,0.2993 z"
   style="fill:#231f20;fill-opacity:1;fill-rule:evenodd;stroke:#231f20;stroke-width:0.21600001;stroke-linecap:butt;stroke-linejoin:miter;stroke-miterlimit:22.92558479;stroke-dasharray:none;stroke-opacity:1"
   id="path4115" /><path
   d="m 313.2417,527.4252 h 0.3087 v -1.8998 h -0.3087 z"
   style="fill:#231f20;fill-opacity:1;fill-rule:evenodd;stroke:none"
   id="path4117" /><path
   d="m 321.3748,527.4252 h 0.3087 v -1.8998 h -0.3087 z"
   style="fill:#231f20;fill-opacity:1;fill-rule:evenodd;stroke:none"
   id="path4119" /><path
   d="m 314.752,524.4891 -0.3813,-0.0468 c -0.0102,0.0533 -0.0272,0.091 -0.0504,0.1128 -0.0236,0.0222 -0.0528,0.0332 -0.0871,0.0332 -0.0621,0 -0.1105,-0.0317 -0.1448,-0.0941 -0.0253,-0.0453 -0.0437,-0.1423 -0.0556,-0.2903 0.0457,0.0465 0.0927,0.0811 0.1412,0.1032 0.0485,0.0224 0.1043,0.0335 0.1675,0.0335 0.123,0 0.2268,-0.0437 0.3118,-0.1318 0.0853,-0.0876 0.1276,-0.1993 0.1276,-0.3342 0,-0.0908 -0.0216,-0.1741 -0.0644,-0.2492 -0.0428,-0.0754 -0.1026,-0.1324 -0.1788,-0.1709 -0.0763,-0.0386 -0.1718,-0.0579 -0.2863,-0.0579 -0.1384,0 -0.2492,0.0233 -0.3328,0.0703 -0.0831,0.0474 -0.15,0.1225 -0.1996,0.2257 -0.0499,0.1029 -0.0751,0.2398 -0.0751,0.4099 0,0.2488 0.0524,0.4314 0.1573,0.5473 0.1046,0.1157 0.2503,0.1735 0.436,0.1735 0.1094,0 0.1962,-0.0125 0.2602,-0.0377 0.0635,-0.0258 0.1165,-0.0629 0.1582,-0.112 0.0422,-0.0487 0.0743,-0.1099 0.0964,-0.1845 z m -0.7061,-0.6145 c 0,-0.0746 0.019,-0.1333 0.0567,-0.1755 0.0374,-0.0422 0.0836,-0.0635 0.138,-0.0635 0.0505,0 0.0924,0.019 0.1264,0.0575 0.0335,0.038 0.0505,0.095 0.0505,0.1712 0,0.0777 -0.0176,0.1372 -0.0525,0.1781 -0.0351,0.0402 -0.0788,0.0609 -0.1306,0.0609 -0.0536,0 -0.0981,-0.0198 -0.1344,-0.0592 -0.036,-0.0394 -0.0541,-0.0958 -0.0541,-0.1695 z m 0.9737,0.1967 h 0.5573 v -0.2962 h -0.5573 z m 0.8141,0.7285 h 1.1188 v -0.2588 c -0.0975,-0.0876 -0.1789,-0.1829 -0.2438,-0.2849 -0.0791,-0.1244 -0.1414,-0.2628 -0.1873,-0.4153 -0.0363,-0.1188 -0.0607,-0.2588 -0.0735,-0.4209 h -0.3821 c 0.0301,0.2253 0.0774,0.4144 0.142,0.5669 0.0647,0.1522 0.167,0.3155 0.307,0.4893 h -0.6811 z m 1.4468,-0.3804 h 0.3577 v -0.1457 c 0.0516,0.0609 0.1032,0.104 0.1556,0.1301 0.0525,0.0258 0.1157,0.0385 0.1899,0.0385 0.0797,0 0.1426,-0.0141 0.1888,-0.0422 0.0465,-0.0284 0.0848,-0.0706 0.114,-0.1264 0.0601,0.0652 0.1151,0.11 0.165,0.1332 0.0493,0.0235 0.1105,0.0354 0.1834,0.0354 0.1074,0 0.1913,-0.0317 0.2511,-0.0958 0.0604,-0.0635 0.0904,-0.163 0.0904,-0.2988 v -0.6278 h -0.3838 v 0.5695 c 0,0.045 -0.009,0.079 -0.0266,0.1009 -0.0255,0.0343 -0.0576,0.0516 -0.0958,0.0516 -0.0451,0 -0.0817,-0.0162 -0.1094,-0.0488 -0.0275,-0.0329 -0.0411,-0.085 -0.0411,-0.1573 v -0.5159 h -0.3841 v 0.5507 c 0,0.044 -0.003,0.0735 -0.007,0.0893 -0.008,0.0253 -0.0224,0.0454 -0.0425,0.0607 -0.0202,0.0156 -0.0437,0.0232 -0.0706,0.0232 -0.044,0 -0.08,-0.0167 -0.1086,-0.0498 -0.028,-0.0332 -0.0422,-0.0879 -0.0422,-0.1636 v -0.5105 h -0.3838 v 0.9995 z m 2.0559,0 h 0.3578 v -0.1457 c 0.0516,0.0609 0.1034,0.104 0.1556,0.1301 0.0524,0.0258 0.1156,0.0385 0.1899,0.0385 0.08,0 0.1429,-0.0141 0.1891,-0.0422 0.0465,-0.0284 0.0845,-0.0706 0.1139,-0.1264 0.0601,0.0652 0.1151,0.11 0.1647,0.1332 0.0496,0.0235 0.1106,0.0354 0.1834,0.0354 0.1075,0 0.1914,-0.0317 0.2515,-0.0958 0.0603,-0.0635 0.0904,-0.163 0.0904,-0.2988 v -0.6278 h -0.3841 v 0.5695 c 0,0.045 -0.008,0.079 -0.0264,0.1009 -0.0258,0.0343 -0.0578,0.0516 -0.0961,0.0516 -0.045,0 -0.0816,-0.0162 -0.1091,-0.0488 -0.0278,-0.0329 -0.0411,-0.085 -0.0411,-0.1573 v -0.5159 h -0.3844 v 0.5507 c 0,0.044 -0.002,0.0735 -0.007,0.0893 -0.008,0.0253 -0.0226,0.0454 -0.0428,0.0607 -0.0201,0.0156 -0.0436,0.0232 -0.0705,0.0232 -0.044,0 -0.08,-0.0167 -0.1083,-0.0498 -0.0281,-0.0332 -0.0423,-0.0879 -0.0423,-0.1636 v -0.5105 h -0.3841 v 0.9995 z"
   style="fill:#231f20;fill-opacity:1;fill-rule:evenodd;stroke:none"
   id="path4121" /><path
   d="m 313.3208,532.8638 c 0,0.2622 0.0473,0.4462 0.1417,0.5508 0.0944,0.1045 0.2384,0.157 0.4314,0.157 0.093,0 0.1692,-0.0111 0.2288,-0.0343 0.0598,-0.0227 0.1083,-0.0527 0.146,-0.0893 0.0377,-0.0366 0.0674,-0.0751 0.089,-0.1157 0.0218,-0.0405 0.0391,-0.0875 0.0524,-0.1417 0.0255,-0.1032 0.0383,-0.2106 0.0383,-0.322 0,-0.2506 -0.0423,-0.4337 -0.127,-0.5496 -0.0845,-0.1163 -0.2305,-0.1741 -0.4377,-0.1741 -0.1159,0 -0.2097,0.0182 -0.2815,0.0556 -0.0717,0.0368 -0.1301,0.0912 -0.176,0.1624 -0.0332,0.0513 -0.0592,0.1205 -0.0774,0.2086 -0.0187,0.0882 -0.028,0.1857 -0.028,0.2923 z m 0.3804,-9e-4 c 0,-0.1757 0.0156,-0.2956 0.0467,-0.3597 0.0307,-0.0646 0.0763,-0.0969 0.135,-0.0969 0.0388,0 0.0725,0.0139 0.1009,0.0411 0.0289,0.0275 0.0496,0.0706 0.0632,0.1292 0.0133,0.0593 0.0201,0.1511 0.0201,0.2758 0,0.1834 -0.0153,0.3067 -0.0465,0.3697 -0.0309,0.0629 -0.0776,0.0944 -0.1397,0.0944 -0.0632,0 -0.1092,-0.0321 -0.1372,-0.0964 -0.0284,-0.0644 -0.0425,-0.1834 -0.0425,-0.3572 z m 1.0715,-0.3106 h 0.4096 v -0.3839 h -0.4096 z m 0.8883,0.9958 h 0.9102 v -0.3056 h -0.6165 l -0.0332,-0.2075 c 0.0428,0.0204 0.0848,0.0354 0.1268,0.0453 0.0416,0.01 0.0824,0.0154 0.1235,0.0154 0.1381,0 0.2503,-0.042 0.3359,-0.1256 0.0862,-0.0834 0.1293,-0.1885 0.1293,-0.315 0,-0.0895 -0.0221,-0.1748 -0.0666,-0.2571 -0.0442,-0.0822 -0.1069,-0.1448 -0.1882,-0.1885 -0.0811,-0.043 -0.1854,-0.0646 -0.3118,-0.0646 -0.091,0 -0.169,0.009 -0.2342,0.0258 -0.0646,0.0173 -0.1199,0.0431 -0.1655,0.0774 -0.0454,0.034 -0.0822,0.0728 -0.1106,0.1159 -0.0283,0.0434 -0.0516,0.0973 -0.0708,0.1619 l 0.3877,0.0425 c 0.01,-0.0621 0.0318,-0.1094 0.0661,-0.1417 0.0346,-0.0321 0.0757,-0.0485 0.1233,-0.0485 0.0533,0 0.0975,0.0201 0.1324,0.0607 0.0348,0.0405 0.0521,0.1009 0.0521,0.1811 0,0.0825 -0.0173,0.1426 -0.0527,0.1809 -0.0351,0.0382 -0.0822,0.0572 -0.14,0.0572 -0.0372,0 -0.0729,-0.009 -0.1075,-0.0269 -0.0255,-0.0136 -0.0538,-0.0374 -0.0847,-0.0717 l -0.3266,0.047 z m 1.2221,-0.7285 h 0.5572 v -0.2963 h -0.5572 z m 1.6755,0.752 v -1.4032 h -0.3878 v 0.9193 c -0.0623,-0.0476 -0.123,-0.0859 -0.1819,-0.1156 -0.0584,-0.0295 -0.1319,-0.0579 -0.2209,-0.0848 v 0.3144 c 0.131,0.0422 0.2322,0.0927 0.3042,0.1513 0.0723,0.0593 0.1287,0.1321 0.1695,0.2186 z m 0.5834,-1.0193 h 0.4096 v -0.3839 h -0.4096 z m 0.8881,0.9958 h 0.9102 v -0.3056 h -0.6166 l -0.0328,-0.2075 c 0.0425,0.0204 0.0847,0.0354 0.1264,0.0453 0.0419,0.01 0.0828,0.0154 0.1236,0.0154 0.1383,0 0.2506,-0.042 0.3362,-0.1256 0.0859,-0.0834 0.1292,-0.1885 0.1292,-0.315 0,-0.0895 -0.0224,-0.1748 -0.0666,-0.2571 -0.0442,-0.0822 -0.1071,-0.1448 -0.1882,-0.1885 -0.0814,-0.043 -0.1854,-0.0646 -0.3121,-0.0646 -0.0907,0 -0.1689,0.009 -0.2339,0.0258 -0.0646,0.0173 -0.1199,0.0431 -0.1658,0.0774 -0.0453,0.034 -0.0822,0.0728 -0.1103,0.1159 -0.0283,0.0434 -0.0515,0.0973 -0.0708,0.1619 l 0.3878,0.0425 c 0.01,-0.0621 0.0314,-0.1094 0.066,-0.1417 0.0346,-0.0321 0.0757,-0.0485 0.1233,-0.0485 0.0533,0 0.0972,0.0201 0.1324,0.0607 0.0346,0.0405 0.0519,0.1009 0.0519,0.1811 0,0.0825 -0.0173,0.1426 -0.0525,0.1809 -0.0351,0.0382 -0.0822,0.0572 -0.14,0.0572 -0.0371,0 -0.0731,-0.009 -0.1074,-0.0269 -0.0258,-0.0136 -0.0542,-0.0374 -0.0848,-0.0717 l -0.3265,0.047 z m 1.2982,-0.3802 h 0.3578 v -0.1462 c 0.0516,0.0612 0.1034,0.1043 0.1556,0.1304 0.0524,0.0258 0.1157,0.0385 0.1899,0.0385 0.08,0 0.1429,-0.0142 0.1891,-0.0422 0.0465,-0.0284 0.0845,-0.0706 0.1139,-0.1267 0.0601,0.0654 0.1151,0.1102 0.1647,0.1335 0.0496,0.0235 0.1106,0.0354 0.1834,0.0354 0.1075,0 0.1914,-0.0317 0.2515,-0.0958 0.0604,-0.0635 0.0904,-0.163 0.0904,-0.2988 v -0.6276 h -0.3841 v 0.5692 c 0,0.0454 -0.008,0.0791 -0.0264,0.101 -0.0258,0.0343 -0.0578,0.0515 -0.0961,0.0515 -0.045,0 -0.0816,-0.0161 -0.1091,-0.0487 -0.0278,-0.0329 -0.0411,-0.0853 -0.0411,-0.1573 v -0.5157 h -0.3844 v 0.5505 c 0,0.044 -0.002,0.0737 -0.007,0.0896 -0.008,0.0247 -0.0224,0.0451 -0.0426,0.0604 -0.0201,0.0156 -0.0436,0.0232 -0.0705,0.0232 -0.044,0 -0.08,-0.0167 -0.1083,-0.0496 -0.0281,-0.0337 -0.0423,-0.0881 -0.0423,-0.1641 v -0.51 h -0.3841 v 0.9995 z m 2.0563,0 h 0.3577 v -0.1462 c 0.0516,0.0612 0.1032,0.1043 0.1557,0.1304 0.0524,0.0258 0.1156,0.0385 0.1899,0.0385 0.0796,0 0.1426,-0.0142 0.189,-0.0422 0.0462,-0.0284 0.0842,-0.0706 0.1137,-0.1267 0.0604,0.0654 0.1154,0.1102 0.165,0.1335 0.0493,0.0235 0.1105,0.0354 0.1834,0.0354 0.1074,0 0.191,-0.0317 0.2514,-0.0958 0.0601,-0.0635 0.0902,-0.163 0.0902,-0.2988 v -0.6276 h -0.3838 v 0.5692 c 0,0.0454 -0.009,0.0791 -0.0264,0.101 -0.0258,0.0343 -0.0581,0.0515 -0.0961,0.0515 -0.0451,0 -0.0816,-0.0161 -0.1094,-0.0487 -0.0275,-0.0329 -0.0411,-0.0853 -0.0411,-0.1573 v -0.5157 h -0.3841 v 0.5505 c 0,0.044 -0.003,0.0737 -0.007,0.0896 -0.008,0.0247 -0.0224,0.0451 -0.0425,0.0604 -0.0201,0.0156 -0.0437,0.0232 -0.0706,0.0232 -0.0439,0 -0.0799,-0.0167 -0.1083,-0.0496 -0.0283,-0.0337 -0.0425,-0.0881 -0.0425,-0.1641 v -0.51 h -0.3838 v 0.9995 z m 2.5381,-0.036 h -0.5754 c 0.007,0.057 0.0269,0.11 0.0601,0.1602 0.0335,0.0502 0.0964,0.1091 0.1882,0.1772 0.0561,0.0416 0.0921,0.0734 0.1077,0.0949 0.0156,0.0218 0.0236,0.0425 0.0236,0.0618 0,0.021 -0.008,0.0386 -0.0236,0.0539 -0.0153,0.0147 -0.0348,0.0221 -0.0581,0.0221 -0.0246,0 -0.0448,-0.008 -0.0601,-0.0227 -0.0156,-0.0156 -0.0263,-0.0428 -0.0314,-0.0816 l -0.1919,0.0156 c 0.007,0.0541 0.0209,0.0963 0.0413,0.1264 0.0199,0.03 0.0485,0.0533 0.0848,0.0697 0.0366,0.0159 0.0876,0.0241 0.1519,0.0241 0.0675,0 0.1199,-0.008 0.1576,-0.0229 0.0372,-0.0156 0.0667,-0.0392 0.0882,-0.0709 0.0215,-0.0318 0.0326,-0.0675 0.0326,-0.1072 0,-0.0419 -0.0125,-0.0822 -0.0371,-0.1202 -0.0247,-0.0385 -0.0698,-0.0805 -0.1344,-0.1264 -0.0385,-0.0266 -0.0643,-0.0453 -0.0777,-0.0558 -0.0127,-0.0111 -0.028,-0.025 -0.0456,-0.0423 h 0.2993 z"
   style="fill:#231f20;fill-opacity:1;fill-rule:evenodd;stroke:none"
   id="path4123" /></g></svg>