<?xml version="1.0" encoding="UTF-8" standalone="no"?>
<!-- Created with Inkscape (http://www.inkscape.org/) -->

<svg
   xmlns:dc="http://purl.org/dc/elements/1.1/"
   xmlns:cc="http://creativecommons.org/ns#"
   xmlns:rdf="http://www.w3.org/1999/02/22-rdf-syntax-ns#"
   xmlns:svg="http://www.w3.org/2000/svg"
   xmlns="http://www.w3.org/2000/svg"
   xmlns:sodipodi="http://sodipodi.sourceforge.net/DTD/sodipodi-0.dtd"
   xmlns:inkscape="http://www.inkscape.org/namespaces/inkscape"
   version="1.1"
   id="svg3713"
   xml:space="preserve"
   width="30.134001"
   height="24.375"
   viewBox="0 0 30.134001 24.375"
   sodipodi:docname="icon.svg"
   inkscape:version="0.92.4 (5da689c313, 2019-01-14)"><metadata
     id="metadata3719"><rdf:RDF><cc:Work
         rdf:about=""><dc:format>image/svg+xml</dc:format><dc:type
           rdf:resource="http://purl.org/dc/dcmitype/StillImage" /><dc:title></dc:title></cc:Work></rdf:RDF></metadata><defs
     id="defs3717" /><sodipodi:namedview
     pagecolor="#ffffff"
     bordercolor="#666666"
     borderopacity="1"
     objecttolerance="10"
     gridtolerance="10"
     guidetolerance="10"
     inkscape:pageopacity="0"
     inkscape:pageshadow="2"
     inkscape:window-width="2960"
     inkscape:window-height="1835"
     id="namedview3715"
     showgrid="false"
     inkscape:zoom="45.254834"
     inkscape:cx="10.205836"
     inkscape:cy="13.290208"
     inkscape:window-x="2308"
     inkscape:window-y="137"
     inkscape:window-maximized="1"
     inkscape:current-layer="g3721" /><g
     id="g3721"
     inkscape:groupmode="layer"
     inkscape:label="Z-Wave LED Dimmer SR-ZV9101FX-EU User Manual"
     transform="matrix(1.3333333,0,0,-1.3333333,0,24.374971)"><path
       d="m 11.271509,11.70033 c -4.2837003,0 -8.1890003,-1.4133 -11.3369003,-3.8426004 0.0578,-0.023 22.5266003,0.036 22.5913003,-0.002 -3.1266,2.3695004 -7.0288,3.8443004 -11.2544,3.8443004"
       style="fill:#da251d;fill-opacity:1;fill-rule:nonzero;stroke:none"
       id="path3973"
       inkscape:connector-curvature="0" /><path
       d="m 11.271509,6.7578296 c -4.2835003,0 -8.1887003,-0.6808 -11.3363003,-1.8515 0.0578,-0.0114 22.5255003,0.0172 22.5904003,-9e-4 -3.1266,1.1418 -7.0285,1.8524 -11.2541,1.8524"
       style="fill:#da251d;fill-opacity:1;fill-rule:nonzero;stroke:none"
       id="path3975"
       inkscape:connector-curvature="0" /><path
       d="m 11.117609,18.28983 c -4.5862003,0 -8.5114003,-2.1805 -11.1878003,-5.4885 0.0167,0.006 22.5683003,0.0241 22.6006003,-0.007 -2.6748,3.3491 -6.7935,5.495 -11.4128,5.495"
       style="fill:#da251d;fill-opacity:1;fill-rule:nonzero;stroke:none"
       id="path3977"
       inkscape:connector-curvature="0" /><path
       d="m 0.0633087,0.87682959 0.49779999,0.049 c 0.0294,-0.1675 0.0904,-0.2899 0.1822,-0.3687 0.0913,-0.0777 0.2146,-0.1171 0.37020001,-0.1171 0.1647,0 0.2892,0.0349 0.3722,0.1049 0.0839,0.0694 0.1256,0.1508 0.1256,0.244 0,0.0604 -0.0176,0.1109 -0.053,0.1528 -0.0346,0.0425 -0.0961,0.0791 -0.184,0.10970001 -0.0595,0.0213 -0.1964,0.0578 -0.40930001,0.1109 -0.2741,0.0677 -0.4666,0.1516 -0.5769,0.2508 -0.1556,0.1389 -0.2333,0.3087 -0.2333,0.5094 0,0.129 0.0366,0.2495 0.1095,0.362 0.0731,0.112 0.1788,0.1976 0.3163,0.2565 0.1381,0.0584 0.3036,0.0879 0.49830001,0.0879 0.3184,0 0.5573,-0.0697 0.7183,-0.2089 0.1602,-0.1395 0.2447,-0.3254 0.2529,-0.5584 l -0.5114,-0.0221 c -0.0218,0.1301 -0.0689,0.2239 -0.1409,0.2806 -0.072,0.0572 -0.18,0.0853 -0.3237,0.0853 -0.14850001,0 -0.26530001,-0.03 -0.34920001,-0.0913 -0.0541,-0.0391 -0.0814,-0.0915 -0.0814,-0.157 0,-0.0601 0.0253,-0.1114 0.076,-0.1539 0.0646,-0.0542 0.2214,-0.1106 0.47000001,-0.1693 0.2492,-0.0589 0.4331,-0.1196 0.5522,-0.1819 0.119,-0.0633 0.2123,-0.1486 0.28,-0.258 0.0672,-0.1088 0.101,-0.24350001 0.101,-0.40340001 0,-0.1448 -0.04,-0.2812 -0.1208,-0.4073 -0.0808,-0.1267 -0.1947,-0.22109996 -0.3421,-0.28259996 -0.1474,-0.0618 -0.3314,-0.0924 -0.5517,-0.0924 -0.32000001,0 -0.56580001,0.0737 -0.73750001,0.22159996 -0.1718,0.148 -0.27439999,0.364 -0.30729999,0.6469 z m 2.683,1.70900001 h 0.5113 v -1.3717 c 0,-0.21740001 0.007,-0.35910001 0.0188,-0.42350001 0.0221,-0.1034 0.0745,-0.1868 0.1564,-0.2491 0.0825,-0.0632 0.1951,-0.0944 0.3379,-0.0944 0.1452,0 0.2549,0.0292 0.3286,0.089 0.0737,0.0589 0.1179,0.1321 0.1326,0.2182 0.0153,0.0865 0.0224,0.2299 0.0224,0.43030001 v 1.4012 h 0.5114 v -1.3303 c 0,-0.30440001 -0.0136,-0.51900001 -0.0414,-0.64460001 -0.0275,-0.1256 -0.0785,-0.231 -0.1528,-0.3177 -0.0743,-0.0862 -0.1738,-0.15509996 -0.2976,-0.20669996 -0.1248,-0.0513 -0.2872,-0.0765 -0.4879,-0.0765 -0.2415,0 -0.4252,0.0278 -0.5502,0.0839 -0.125,0.0558 -0.2236,0.12839996 -0.2959,0.21739996 -0.0726,0.089 -0.1202,0.1828 -0.1434,0.2809 -0.0335,0.1449 -0.0502,0.3589 -0.0502,0.64260001 z m 2.7601,-2.53269997 V 2.5858296 h 0.4977 l 1.037,-1.69140001 V 2.5858296 h 0.4753 V 0.05312963 h -0.5136 l -1.0208,1.65169997 V 0.05312963 Z m 2.7487,0 V 2.5858296 h 1.0765999 c 0.2707,0 0.4672,-0.0229 0.5899,-0.0683 0.1228004,-0.0454 0.2211004,-0.1261 0.2948004,-0.2424 0.0737,-0.1168 0.1103,-0.2494 0.1103,-0.3994 0,-0.1899 -0.0561,-0.3472 -0.1673,-0.4711 -0.1116,-0.1233 -0.2792004,-0.2018 -0.5014004,-0.2333 0.1108,-0.0652 0.2024,-0.1358 0.2744,-0.21310001 0.0717,-0.0771 0.1684004,-0.2141 0.2905004,-0.4111 l 0.3096,-0.49399996 H 9.9211086 l -0.37,0.55129996 c -0.1312,0.197 -0.2211,0.3209 -0.2693,0.3722 -0.0484,0.0513 -0.0997,0.0862 -0.1538999,0.10540001 -0.0541,0.019 -0.1397,0.0284 -0.2577,0.0284 h -0.1034 V 0.05312963 Z m 0.5117,1.46179997 h 0.3780999 c 0.2452,0 0.3989,0.01 0.4601,0.0309 0.0606,0.0204 0.1086,0.0564 0.1431,0.1071 0.0343,0.0508 0.0519,0.1137 0.0519,0.19 0,0.0853 -0.0229,0.1539 -0.0683,0.2063 -0.0454,0.0525 -0.1097,0.0856 -0.1928,0.0998 -0.0413,0.005 -0.1658,0.008 -0.3733,0.008 H 8.7668087 v -0.6423 z M 10.990009,0.05312963 V 2.5858296 h 0.5111 V 0.05312963 Z m 2.8162,0.93109996 0.4955,-0.157 c -0.076,-0.2764 -0.2024,-0.4816 -0.3793,-0.6163 -0.1763,-0.13369996 -0.4011,-0.20089996 -0.6729,-0.20089996 -0.3362,0 -0.6126,0.1151 -0.8291,0.34439996 -0.2166,0.2299 -0.3249,0.5442 -0.3249,0.94220001 0,0.4218 0.1089,0.7489 0.3266,0.9825 0.2177,0.233 0.5037,0.3498 0.8586,0.3498 0.3098,0 0.5615,-0.0913 0.7551,-0.275 0.1154,-0.1077 0.2016,-0.2633 0.2594,-0.4663 l -0.5066,-0.121 c -0.0297,0.1315 -0.0921,0.2356 -0.1876,0.3115 -0.095,0.076 -0.2103,0.1137 -0.3461,0.1137 -0.1877,0 -0.3405,-0.0672 -0.457,-0.2021 -0.1168,-0.1344 -0.1751,-0.3526 -0.1751,-0.6548 0,-0.32 0.0572,-0.54820001 0.1726,-0.68400001 0.1151,-0.1361 0.265,-0.2038 0.449,-0.2038 0.1361,0 0.2528,0.0428 0.3509,0.1295 0.0978,0.0862 0.1678,0.2223 0.2109,0.4076 z m 1.1327,-0.93109996 V 2.5858296 h 0.5117 v -0.9966 h 1.002 v 0.9966 h 0.5114 V 0.05312963 h -0.5114 V 1.1606296 h -1.002 V 0.05312963 Z m 2.7508,0 V 2.5858296 h 1.8776 v -0.4286 h -1.3662 v -0.5615 h 1.2713 v -0.4264 h -1.2713 V 0.48002959 h 1.4144 V 0.05312963 Z m 2.558,0 V 2.5858296 h 1.0768 c 0.2708,0 0.4669,-0.0229 0.5897,-0.0683 0.1227,-0.0454 0.2213,-0.1261 0.2948,-0.2424 0.0739,-0.1168 0.1102,-0.2494 0.1102,-0.3994 0,-0.1899 -0.0558,-0.3472 -0.1672,-0.4711 -0.1114,-0.1233 -0.2792,-0.2018 -0.5015,-0.2333 0.1111,-0.0652 0.2024,-0.1358 0.2744,-0.21310001 0.0717,-0.0771 0.1687,-0.2141 0.2906,-0.4111 l 0.3098,-0.49399996 h -0.6117 l -0.3697,0.55129996 c -0.1315,0.197 -0.2213,0.3209 -0.2695,0.3722 -0.0482,0.0513 -0.0995,0.0862 -0.1539,0.10540001 -0.0542,0.019 -0.1398,0.0284 -0.2577,0.0284 h -0.1035 V 0.05312963 Z m 0.5116,1.46179997 h 0.3782 c 0.2454,0 0.3988,0.01 0.46,0.0309 0.0607,0.0204 0.1086,0.0564 0.1432,0.1071 0.0343,0.0508 0.0518,0.1137 0.0518,0.19 0,0.0853 -0.0229,0.1539 -0.068,0.2063 -0.0456,0.0525 -0.1097,0.0856 -0.193,0.0998 -0.0414,0.005 -0.1659,0.008 -0.3733,0.008 h -0.3989 v -0.6423 z"
       style="fill:#231f20;fill-opacity:1;fill-rule:nonzero;stroke:none"
       id="path3979"
       inkscape:connector-curvature="0" /></g></svg>